/* XPM */
static char * textures_xpm[] = {
"128 128 28 1",
" 	c None",
".	c #30346D",
"+	c #597DCE",
"@	c #D2AA99",
"#	c #8595A1",
"$	c #DEEED6",
"%	c #757161",
"&	c #D27D2C",
"*	c #4E4A4E",
"=	c #442434",
"-	c #6DC2CA",
";	c #140C1C",
">	c #D3BD50",
",	c #E6D662",
"'	c #000000",
")	c #EEE26A",
"!	c #F5EC70",
"~	c #E8DB63",
"{	c #DBCA56",
"]	c #CCB646",
"^	c #BD9F35",
"/	c #B0952E",
"(	c #AF942F",
"_	c #C3A73E",
":	c #346524",
"<	c #BDA43C",
"[	c #6DAA2C",
"}	c #D0B94B",
".......+...............+...............+........                        @@@@@@@@###################     $$$$$$$$$$$$$$$$$$$$$$$%",
".......+...............+...............+........ &&&&&&&&&&&&&&&&&&&&&& @@@&@@@@#$$$$$$#$$$$$$$$#$##    @$@@@@@@@@@@@@@@@@@@@@%%",
".......+...............+...............+........ %&&&&&&&&&&&&&&&&&&&&*=@@@@@@@@#$$$$$$$$$$$$$$$$$#$#   @$@@@@@@@@@@@@@@@@@@@@%%",
".......-...............-...............-........ %%;;;;;;;;;;;;;;;;;;** @@@@@@&@#$$$$$$#$$$$$$$$#$#$$#  @$@@@@@@@@@@@@@@@@@@@@%%",
".......+...............+...............+........ %%;;;;;;;;;;;;;;;;;;**=@&@@@@@@#$$$$$$$$$$$$$$$$$#$$$# @$@@@@@@@@@@@@@@@@@@@@%%",
".......-...............-...............-........ %%;;;;;;;;;;;;;;;;;;** @@@@@@@@#$$$$$$#$$$$$$$$#$######@$@@@@@@@@@@@@@@@@@@@@%%",
".......-...............-...............-........ %%;;;;;;;;;;;;;;;;;;**=@@@@&@@@#$$$$$$$$$$$$$$$$$$$$$$#@$@@@@@@@@@@@@@@@@@@@@%%",
"+++-+-----+-+++++++-+-----+-+++++++-+-----+-++++ %%;;;;;;;;;;;;;;;;;;** @@@@@@@@#$$$$$$#$$$$$$$$#$$$$$$#@$@@@@@@@@@@@@@@@@@@@@%%",
".......-===============================-........ %%;;;;;;;;;;;;;;;;;;**=        #$$$$$$#$$$$$$$$#$$$$$$#@$@@@@@@@@@@@@@@@@@@@@%%",
".......-=..............................-........ %%;;;;;;;;;;;;;;;;;;**         #$$$$$$#$$$$$$$$#$$$$$$#@$@@@@@@@@@@@@@@@@@@@@%%",
".......+=..............................+........ %%;;;;;;;;;;;;;;;;;;**=        #$$$$$$#$$$$$$$$#$$$$$$#@$@@@@@@@@@@@@@@@@@@@@%%",
".......-=..............................-........ %%;;;;;;;;;;;;;;;;;;**         #$$$$$$##########$$$$$$#@$@@@@@@@@@@@@@@@@@@@@%%",
".......+=..............................+........ %%;;;;;;;;;;;;;;;;;;**=        #$$$$$$#$$$$$$$$#$$$$$$#@$@@@@@@@@@@@@@@@@@@@@%%",
".......+=..............................+........ %%;;;;;;;;;;;;;;;;;;**         #$$$$$$#$$$$$$$$#$$$$$$#@$@@@@@@@@@@@@@@@@@@@@%%",
".......+=..............................+........ %%;;;;;;;;;;;;;;;;;;**=        #$$$$$$#$$$$$$$$#$$$$$$#@$@@@@@@@@@@@@@@@@@@@@%%",
".......+=..............................+........ %%;;;;;;;;;;;;;;;;;;**         #$$$$$$#$$$$$$$$#$$$$$$#@$@@@@@@@@@@@@@@@@@@@@%%",
".......+=..............................+........ %%;;;;;;;;;;;;;;;;;;**=        ##$#$#$##########$#$#$##@$@@@@@@@@@@@@@@@@@@@@%%",
".......+=..............................+........ %%;;;;;;;;;;;;;;;;;;**         #$$$$$$$$$$$$$$$$$$$$$$#@$@@@@@@@@@@@@@@@@@@@@%%",
".......+=..............................+........ %%;;;;;;;;;;;;;;;;;;**=        #$$$$$$#$$$$$$$$#$$$$$$#@$@@@@@@@@@@@@@@@@@@@@%%",
".......-=..............................-........ %%;;;;;;;;;;;;;;;;;;**         ########################@$@@@@@@@@@@@@@@@@@@@@%%",
".......+=..............................+........ %%;;;;;;;;;;;;;;;;;;**=                                @$@@@@@@@@@@@@@@@@@@@@%%",
".......-=..............................-........ %====================*                                 @$@@@@@@@@@@@@@@@@@@@@%%",
".......-=..............................-........ =======================                                @$@@@@@@@@@@@@@@@@@@@@%%",
"+++++---=..............................---+-++++  = = = = = = = = = = =                                 %%%%%%%%%%%%%%%%%%%%%%%%",
".......-=..............................-........@@@@@@@$$$$$$$$$$@@@@@@@        -----------------------%%%%%%%%%%%%%%%%%%%%%%%%%",
".......-=..............................-........@@@@@@$++++++++++$@@@@@@        -$$$$$$$$$$$$$$$$$$$$$%%%%%%%%%%%%%%%%%%%%%%%%%-",
".......+=..............................+........@@@@$$++++++++++++$$@@@@        -$--------------------%%%%                    $-",
".......-=..............................-........@@@$-++++++++++++++-$@@@        -$--------------------%%%%                    $-",
".......+=..............................+........@@$-++++++++++++++++-$@@        -$--------------------%%%%                    $-",
".......+=..............................+........@@$++++++++++++++++++$@@        -$--------------------%%%%                    $-",
".......+=..............................+........@$++++++++++++++++++++$@        -$--------------------%%%%                    $-",
".......+=..............................+........$-++++++.+..+.+.+++++++$        -$--------------------%%%%                    $-",
".......+=..............................+........$++++++..........++++++$        -$--------------------%%%%                    $-",
".......+=..............................+........$+++++++.........++++++$        -$--------------------%%%%                    $-",
".......+=..............................-........$++++++.........+++++++$        -$--------------------%%%%                    $-",
".......-=..............................+........$++++++..........++++++$        -$--------------------%%%%                    $-",
".......+=..............................-........$++++++..........++++++$        -$--------------------%%%%                    $-",
".......-=..............................-........$++++++.........+++++++$        -$--------------------%%%%                    $-",
".......-=..............................-........$+++++++.........++++++$        -$--------------------%%%%                    $-",
"+++-+-----+-+++++++-+-----+-++++++-+-------+-+++$++++++..........++++++$        -$--------------------%%%%                    $-",
".......-...............-...............-........$-++++++...++...++++++-$        -$--------------------%%%%                    $-",
".......-...............-...............-........@$++++++++++++++++++++$@        -$--------------------%%%%                    $-",
".......+...............+...............+........@@$++++++++++++++++++$@@        -$--------------------%%%%                    $-",
".......-...............-...............-........@@$-++++++++++++++++-$@@        -$--------------------%%%%                    $-",
".......+...............+...............+........@@@$-++++++++++++++-$@@@        -$--------------------%%%%                    $-",
".......+...............+...............+........@@@@$$++++++++++++$$@@@@        -$--------------------%%%%                    $-",
".......+...............+...............+........@@@@@@$-++++++++-$@@@@@@        -%%%%%%%%%%%%%%%%%%%%%%%%%$$$$$$$$$$$$$$$$$$$$$-",
".......+...............+...............+........@@@@@@@$$$$$$$$$$@@@@@@@        %%%%%%%%%%%%%%%%%%%%%%%%%-----------------------",
"                                                                                                                                ",
"                                                                                                                                ",
"                                                                                                                                ",
" >>>>>     >>    >>>>>   >>>>>       >> >>>>>>>   >>>>  >>>>>>>  >>>>>   >>>>>   >>>>>  >>>>>>   >>>>>  >>>>>   >>>>>>> >>>>>>> ",
",,''',,   ,,,'  ,,''',, ,,''',,     ,,,',,'''''' ,,''''  '''',,',,''',, ,,''',, ,,''',, ,,''',, ,,''',, ,,'',,  ,,'''''',,''''''",
"))'  ))' ))))'  ))'  ))'))'  ))'   ))))'))'     ))''         ))'))'  ))'))'  ))'))'  ))'))'  ))'))'  ))'))'  )) ))'     ))'     ",
"!!' !!!'  '!!'   ''  !!' ''  !!'  !!'!!'!!'     !!'         !!''!!'  !!'!!'  !!'!!'  !!'!!'  !!'!!'   ''!!'  !!'!!'     !!'     ",
"~~'~~~~'   ~~'      ~~''  ~~~~'' ~~''~~'~~~~~~  ~~~~~~      ~~'  ~~~~~''~~'  ~~'~~'  ~~'~~~~~~''~~'     ~~'  ~~'~~~~~   ~~~~~   ",
"{{{{'{{'   {{'     {{''    ''{{ {{'' {{' ''''{{ {{'''{{    {{'' {{'''{{  {{{{{{'{{{{{{{'{{'''{{ {{'     {{'  {{'{{''''  {{''''  ",
"]]]'']]'   ]]'    ]]''       ]]']]]]]]]'     ]]']]'  ]]'   ]]'  ]]'  ]]'  ''']]']]''']]']]'  ]]']]'     ]]'  ]]']]'     ]]'     ",
"^^'' ^^'   ^^'   ^^''   ^^   ^^' ''''^^'     ^^'^^'  ^^'  ^^''  ^^'  ^^'     ^^'^^'  ^^'^^'  ^^'^^'  ^^ ^^'  ^^'^^'     ^^'     ",
"//'  //'   //'  //''    //'  //'     //'//   //'//'  //'  //'   //'  //'    //''//'  //'//'  //'//'  //'//' //''//'     //'     ",
" ((((('' (((((( (((((((  (((((''     ((' ((((('' (((((''  (('    ((((('' (((('' (('  (('(((((('' (((((''((((('' ((((((( (('     ",
"  '''''   '''''' '''''''  '''''       ''  '''''   '''''    ''     '''''   ''''   ''   '' ''''''   '''''  '''''   ''''''' ''     ",
"                                                                                                                                ",
"                                                                                                                                ",
"                                                                                                                                ",
"                                                                                                                                ",
"                                                                                                                                ",
" >>>>>  >>   >>   >>>>     >>>> >>   >> >>      >     > >>   >>  >>>>>  >>>>>>   >>>>>  >>>>>>   >>>>>  >>>>>>>>>>   >> >>   >> ",
",,''',, ,,'  ,,'   ,,''     ,,'',,'  ,,',,'     ,,   ,,',,'  ,,',,''',, ,,''',, ,,''',, ,,''',, ,,''',,  '',,''',,'  ,,',,'  ,,'",
"))'  ))'))'  ))'   ))'      ))' ))' ))''))'     ))) )))'))'  ))'))'  ))'))'  ))'))'  ))'))'  ))'))'   ''   ))'  ))'  ))'))'  ))'",
"!!'   ''!!'  !!'   !!'      !!' !!'!!'' !!'     !!!!!!!'!!!  !!'!!'  !!'!!'  !!'!!'  !!'!!'  !!'!!'        !!'  !!'  !!'!!'  !!'",
"~~'     ~~~~~~~'   ~~'      ~~' ~~~~''  ~~'     ~~'~'~~'~~~~ ~~'~~'  ~~'~~'  ~~'~~'  ~~'~~'  ~~' ~~~~~     ~~'  ~~'  ~~'~~'  ~~'",
"{{'{{{{ {{'''{{'   {{'      {{' {{{{'   {{'     {{' '{{'{{'{{{{'{{'  {{'{{{{{{''{{'  {{'{{{{{{''  '''{{    {{'  {{'  {{' {{ {{''",
"]]' ']]']]'  ]]'   ]]'      ]]' ]]']]   ]]'     ]]'  ]]']]' ]]]']]'  ]]']]''''' ]]'  ]]']]]]'''      ]]'   ]]'  ]]'  ]]' ]]']]' ",
"^^'  ^^'^^'  ^^'   ^^'  ^^  ^^' ^^' ^^  ^^'     ^^'  ^^'^^'  ^^'^^'  ^^'^^'     ^^'  ^^'^^'^^   ^^   ^^'   ^^'  ^^'  ^^' ^^'^^' ",
"//'  //'//'  //'   //'  //' //' //'  // //'     //'  //'//'  //'//'  //'//'     //'////'//' //  //'  //'   //'  //'  //'  ///'' ",
" (((((''(('  (('  ((((   (((('' (('  (('((((((( (('  (('(('  ((' (((((''(('      (((((''(('  ((  (((((''   (('   (((((''  ((('  ",
"  '''''  ''   ''   ''''   ''''   ''   '' ''''''' ''   '' ''   ''  '''''  ''       '''__  ''   ''  '''''     ''    '''''    '''  ",
"                                                                                      ''                                        ",
"                                                                                                                                ",
"                                                                                                        @@@@@@::::@@@:::::@@@@@@",
"                                                                                                        @@@@@:::::::::::::::@@@@",
"                                                                <                                       @@@@::[[::[::[[::[:::@@@",
">>   >> >>   >> >>    >>>>>>>>>                                 >>                                      @@@:::[[:[[[:[[::[[:::@@",
",,'  ,,',,'  ,,',,'   ,,''''',,'                                ,,,                                     @@::[:::::[:::::::[[:::@",
"))'  ))' )) ))'' ))  ))'     ))'                                ))))                                    @@:[[::::::::[[::[:::::@",
"!!'  !!' !!'!!'  !!' !!'    !!''                                !!!!!                                   @::[::[::[[[:[[:[[[::[::",
"~~'  ~~'  ~~~''   ~~~~''   ~~''                                 ~~~~~~                                  ::::::::::[::::::[::::::",
"{{'{ {{'  {{{'     {{''   {{''                  {{{{{{{         {{{{{{{                                 :[:[::::[[:::[:::::[[::=",
"]]]]]]]' ]]']]     ]]'   ]]''                    '''''''        ]]]]]]''                                :[[[::::[[::[[[:::[[:::=",
"^^^'^^^' ^^'^^'    ^^'  ^^''                                    ^^^^^''                                 =:[::::::::::[:::::[:::@",
"//'' //'//'' //    //'  //'        //      //                   ////''                                  =:::::[::::[:::::[:::::@",
"(''   ('(('  (('   (('  (((((((   ((''     (('                  (((''                                   @=[[:[[[:[::::::[[[:[[=@",
" '     ' ''   ''    ''   '''''''   ''       ''                  __''                                    @=[[::[:[[[::[[::[::[[=@",
"                                                                }''                                     =::::::::[:::[[::[:::::=",
"                                                                 '                                      =::::::::::::::::::::::=",
"                                                                                                        =::[:::::::::::::::[::==",
"                                                                                                        @=[[[[[:::::[[::::[[[:=@",
"                                                                                                        @==[:[[::[::[[::[[:[::=@",
"                                                                                                        @@==::::[[[:::::[[:::[=@",
"                                                                                                        @@@===:::[:::[[:::::==@@",
"                                                                                                        @@@@===::::[:[[:=:====@@",
"                                                                                                        @@@@@@===:===::====@@@@@",
"                                                                                                        @@@@@@@==========@@@@@@@",
"                                                                                                                                ",
"  ====     ==     ====    ====     ===   ======   ====   ======   ====    ====    ====   =====    ====   =====   ======  ====== ",
" ==$$==   ===    ==$$==  ==$$==   =$==   ==$$$$  ==$$$   $$$$==  ==$$==  ==$$==  ==$$==  ==$$==  ==$$==  ==$$==  ==$$$$  ==$$$$ ",
" ==  ==   $==    $$  ==  $$ ==$  == ==   =====   =====      ==$  $====$  ==  ==  ==  ==  =====$  ==  $$  ==  ==  ====    ====   ",
" ==  ==    ==     ====$     $==  == ==   $$$$==  ==$$==    ==$   ==$$==  $=====  ======  ==$$==  ==      ==  ==  ==$$    ==$$   ",
" ==  ==    ==    ==$$$   ==  ==  ======  ==  ==  ==  ==    ==    ==  ==   $$$==  ==$$==  ==  ==  ==  ==  ==  ==  ==      ==     ",
" $====$  ======  ======  $====$  $$$==$  $====$  $====$    ==    $====$   ====$  ==  ==  =====$  $====$  =====$  ======  ==     ",
"  $$$$   $$$$$$  $$$$$$   $$$$      $$    $$$$    $$$$     $$     $$$$    $$$$   $$  $$  $$$$$    $$$$   $$$$$   $$$$$$  $$     ",
"                                                                                                                                ",
"  ====   ==  ==   ====       ==  ==  ==  ==      =    =  =   ==   ====   =====    ====   =====    ====   ======  ==  ==  ==  == ",
" ==$$==  ==  ==   $==$       ==  == ==$  ==      ==  ==  ==  ==  ==$$==  ==$$==  ==$$==  ==$$==  ==$$$   $$==$$  ==  ==  ==  == ",
" ==  $$  ======    ==        ==  ====$   ==      ======  === ==  ==  ==  ==  ==  ==  ==  ==  ==  $====     ==    ==  ==  ==  == ",
" == ===  ==$$==    ==        ==  ==$==   ==      ======  ==$===  ==  ==  =====$  == ===  =====$   $$$==    ==    ==  ==  ==  == ",
" == $==  ==  ==    ==    ==  ==  == $==  ==      ==$$==  == $==  ==  ==  ==$$$   == ==$  ==$$==  ==  ==    ==    ==  ==  $====$ ",
" $====$  ==  ==   ====   $====$  ==  ==  ======  ==  ==  ==  $=  $====$  ==      $==$==  ==  ==  $====$    ==    $====$   $==$  ",
"  $$$$   $$  $$   $$$$    $$$$   $$  $$  $$$$$$  $$  $$  $$   $   $$$$   $$       $$ $$  $$  $$   $$$$     $$     $$$$     $$   ",
"                                                                                                                                ",
" ==  ==  ==  ==  ==  ==  ======                                   ==                                                            ",
" ==  ==  ==  ==  ==  ==  $$$==$                                   $==                                                           ",
" ==  ==  $====$  $====$    ==$                   ======            $==                                                          ",
" ======   ====    $==$    ==$      ==            $$$$$$            ==$                                                          ",
" ==$$==  ==$$==    ==    ==$       ==      ==                     ==$                                                           ",
" =$  $=  ==  ==    ==    ======   ==$      ==                     $$                                                            ",
" $    $  $$  $$    $$    $$$$$$   $$       $$                                                                                   "};
