/* XPM */
static char * textures_xpm[] = {
"128 128 30 1",
" 	c None",
".	c #442434",
"+	c #140C1C",
"@	c #4E4A4E",
"#	c #D2AA99",
"$	c #8595A1",
"%	c #DEEED6",
"&	c #757161",
"*	c #D27D2C",
"=	c #30346D",
"-	c #6DC2CA",
";	c #597DCE",
">	c #C8C888",
",	c #888848",
"'	c #000000",
")	c #989858",
"!	c #A8A868",
"~	c #B8B878",
"{	c #D8D898",
"]	c #E8E8A8",
"^	c #F8F8B8",
"/	c #F8F8C8",
"(	c #787838",
"_	c #F8F8D8",
":	c #6DAA2C",
"<	c #346524",
"[	c #DAD45E",
"}	c #F8F8E8",
"|	c #854C30",
"1	c #D04648",
"                                ...++@..+@..++@.                        ########$$$$$$$$$$$$$$$$$$$     %%%%%%%%%%%%%%%%%%%%%%%&",
"                                ..+@.+++@..++@.. ********************** ###*####$%%%%%%$%%%%%%%%$%$$    #%####################&&",
"                                .++++@@...++@... &********************@.########$%%%%%%%%%%%%%%%%%$%$   #%####################&&",
"                                +@@@....++.@.... &&++++++++++++++++++@@ ######*#$%%%%%%$%%%%%%%%$%$%%$  #%####################&&",
"                                @.....+++@....++ &&++++++++++++++++++@@.#*######$%%%%%%%%%%%%%%%%%$%%%$ #%####################&&",
"                                ....+++@....++@. &&++++++++++++++++++@@ ########$%%%%%%$%%%%%%%%$%$$$$$$#%####################&&",
"                                ..+++@@...++@... &&++++++++++++++++++@@.####*###$%%%%%%%%%%%%%%%%%%%%%%$#%####################&&",
"                                +++@..........++ &&++++++++++++++++++@@ ########$%%%%%%$%%%%%%%%$%%%%%%$#%####################&&",
"                                @...........+++@ &&++++++++++++++++++@@.........$%%%%%%$%%%%%%%%$%%%%%%$#%####################&&",
"                                .........++++@.. &&++++++++++++++++++@@ ........$%%%%%%$%%%%%%%%$%%%%%%$#%####################&&",
"                                ......++++@@.... &&++++++++++++++++++@@.........$%%%%%%$%%%%%%%%$%%%%%%$#%####################&&",
"                                ...++++@@....... &&++++++++++++++++++@@ ........$%%%%%%$$$$$$$$$$%%%%%%$#%####################&&",
"                                .+++@.@.....++.. &&++++++++++++++++++@@.........$%%%%%%$%%%%%%%%$%%%%%%$#%####################&&",
"                                ++@.......++@... &&++++++++++++++++++@@ ........$%%%%%%$%%%%%%%%$%%%%%%$#%####################&&",
"                                ........++@....+ &&++++++++++++++++++@@.........$%%%%%%$%%%%%%%%$%%%%%%$#%####################&&",
"                                .....+++@+....++ &&++++++++++++++++++@@ ........$%%%%%%$%%%%%%%%$%%%%%%$#%####################&&",
"                                                 &&++++++++++++++++++@@.........$$%$%$%$$$$$$$$$$%$%$%$$#%####################&&",
"                                                 &&++++++++++++++++++@@ ........$%%%%%%%%%%%%%%%%%%%%%%$#%####################&&",
"                                                 &&++++++++++++++++++@@.........$%%%%%%$%%%%%%%%$%%%%%%$#%####################&&",
"                                                 &&++++++++++++++++++@@ ........$$$$$$$$$$$$$$$$$$$$$$$$#%####################&&",
"                                                 &&++++++++++++++++++@@.........                        #%####################&&",
"                                                 &....................@ ........                        #%####################&&",
"                                                 .......................&&&&&&&&                        #%####################&&",
"                                                  . . . . . . . . . . . ++++++++                        &&&&&&&&&&&&&&&&&&&&&&&&",
"                                                #######%%%%%%%%%%#######========-----------------------&&&&&&&&&&&&&&&&&&&&&&&&&",
"                                                ######%;;;;;;;;;;%######========-%%%%%%%%%%%%%%%%%%%%%&&&&&&&&&&&&&&&&&&&&&&&&&-",
"                                                ####%%;;;;;;;;;;;;%%####=====.==-%--------------------&&&&                    %-",
"                                                ###%-;;;;;;;;;;;;;;-%###===.=.==-%--------------------&&&&                    %-",
"                                                ##%-;;;;;;;;;;;;;;;;-%##===.=.==-%--------------------&&&&                    %-",
"                                                ##%;;;;;;;;;;;;;;;;;;%##=......=-%--------------------&&&&                    %-",
"                                                #%;;;;;;;;;;;;;;;;;;;;%#==.....=-%--------------------&&&&                    %-",
"                                                %-;;;;;;=;==;=;=;;;;;;;%========-%--------------------&&&&                    %-",
"                                                %;;;;;;==========;;;;;;%        -%--------------------&&&&                    %-",
"                                                %;;;;;;;=========;;;;;;%        -%--------------------&&&&                    %-",
"                                                %;;;;;;=========;;;;;;;%        -%--------------------&&&&                    %-",
"                                                %;;;;;;==========;;;;;;%        -%--------------------&&&&                    %-",
"                                                %;;;;;;==========;;;;;;%        -%--------------------&&&&                    %-",
"                                                %;;;;;;=========;;;;;;;%        -%--------------------&&&&                    %-",
"                                                %;;;;;;;=========;;;;;;%        -%--------------------&&&&                    %-",
"                                                %;;;;;;==========;;;;;;%        -%--------------------&&&&                    %-",
"                                                %-;;;;;;===;;===;;;;;;-%        -%--------------------&&&&                    %-",
"                                                #%;;;;;;;;;;;;;;;;;;;;%#        -%--------------------&&&&                    %-",
"                                                ##%;;;;;;;;;;;;;;;;;;%##        -%--------------------&&&&                    %-",
"                                                ##%-;;;;;;;;;;;;;;;;-%##        -%--------------------&&&&                    %-",
"                                                ###%-;;;;;;;;;;;;;;-%###        -%--------------------&&&&                    %-",
"                                                ####%%;;;;;;;;;;;;%%####        -%--------------------&&&&                    %-",
"                                                ######%-;;;;;;;;-%######        -&&&&&&&&&&&&&&&&&&&&&&&&&%%%%%%%%%%%%%%%%%%%%%-",
"                                                #######%%%%%%%%%%#######        &&&&&&&&&&&&&&&&&&&&&&&&&-----------------------",
"                                                                                                                                ",
"                                                                                                                                ",
"                                                                                                                                ",
" >>>>>     >>    >>>>>   >>>>>       >> >>>>>>>   >>>>  >>>>>>>  >>>>>   >>>>>   >>>>>  >>>>>>   >>>>>  >>>>>   >>>>>>> >>>>>>> ",
">,''',>   >,,'  >,''',> >,''',>     >,,',,'''''' >,''''  '''',,'>,''',> >,''',> >,''',> ,,''',> >,''',> ,,'',>  ,,'''''',,''''''",
"))'  ))' >)))'  ))'  ))'))'  ))'   >)))'))'     >)''         ))'))'  ))'))'  ))'))'  ))'))'  ))'))'  ))'))'  )> ))'     ))'     ",
"!!' !!!'  '!!'   ''  !!' ''  !!'  >!'!!'!!'     !!'         !!''!!'  !!'!!'  !!'!!'  !!'!!'  !!'!!'   ''!!'  !!'!!'     !!'     ",
"~~'~~~~'   ~~'      ~~''  ~~~~'' >~''~~'~~~~~~  ~~~~~~      ~~'  ~~~~~''~~'  ~~'~~'  ~~'~~~~~~''~~'     ~~'  ~~'~~~~~   ~~~~~   ",
">>>>'>>'   >>'     >>''    ''>> >>'' >>' ''''>> >>'''>>    >>'' >>'''>>  >>>>>>'>>>>>>>'>>'''>> >>'     >>'  >>'>>''''  >>''''  ",
"{{{''{{'   {{'    {{''       {{'{{{{{{{'     {{'{{'  {{'   {{'  {{'  {{'  '''{{'{{'''{{'{{'  {{'{{'     {{'  {{'{{'     {{'     ",
"]]'' ]]'   ]]'   ]]''   ]]   ]]' '''']]'     ]]']]'  ]]'  ]]''  ]]'  ]]'     ]]']]'  ]]']]'  ]]']]'  ]] ]]'  ]]']]'     ]]'     ",
"^^'  ^^'   ^^'  ^^''    ^^'  ^^'     ^^'^^   ^^'^^'  ^^'  ^^'   ^^'  ^^'    ^^''^^'  ^^'^^'  ^^'^^'  ^^'^^' ^^''^^'     ^^'     ",
" /////'' ////// ///////  /////''     //' /////'' /////''  //'    /////'' ////'' //'  //'//////'' /////''/////'' /////// //'     ",
"  '''''   '''''' '''''''  '''''       ''  '''''   '''''    ''     '''''   ''''   ''   '' ''''''   '''''  '''''   ''''''' ''     ",
"                                                                                                                                ",
"                                                                                                                                ",
"                                                                                                                                ",
"                                                                                                                                ",
"                                                                                                                                ",
" >>>>>  >>   >>   >>>>     >>>> >>   >> >>      >     > >>   >>  >>>>>  >>>>>>   >>>>>  >>>>>>   >>>>>  >>>>>>>>>>   >( >>   >> ",
">,''',> ,,'  ,,'   ,,''     ,,'',,'  ,,',,'     ,>   >,',,'  ,,'>,''',> ,,''',, >,''',> ,,''',, >,''',>  '',,''',,'  ,,',,'  ,,'",
"))'  ))'))'  ))'   ))'      ))' ))' ))''))'     ))> >))'))'  ))'))'  ))'))'  ))'))'  ))'))'  ))'))'   ''   ))'  ))'  ))'))'  ))'",
"!!'   ''!!'  !!'   !!'      !!' !!'!!'' !!'     !!!>!!!'!!!  !!'!!'  !!'!!'  !!'!!'  !!'!!'  !!'!!'        !!'  !!'  !!'!!'  !!'",
"~~'     ~~~~~~~'   ~~'      ~~' ~~~~''  ~~'     ~~'~'~~'~~~~ ~~'~~'  ~~'~~'  ~~'~~'  ~~'~~'  ~~' ~~~~~     ~~'  ~~'  ~~'~~'  ~~'",
">>'>>>> >>'''>>'   >>'      >>' >>>>'   >>'     >>' '>>'>>'>>>>'>>'  >>'>>>>>>''>>'  >>'>>>>>>''  '''>>    >>'  >>'  >>' >> >>''",
"{{' '{{'{{'  {{'   {{'      {{' {{'{{   {{'     {{'  {{'{{' {{{'{{'  {{'{{''''' {{'  {{'{{{{'''      {{'   {{'  {{'  {{' {{'{{' ",
"]]'  ]]']]'  ]]'   ]]'  ]]  ]]' ]]' ]]  ]]'     ]]'  ]]']]'  ]]']]'  ]]']]'     ]]'  ]]']]']]   ]]   ]]'   ]]'  ]]'  ]]' ]]']]' ",
"^^'  ^^'^^'  ^^'   ^^'  ^^' ^^' ^^'  ^^ ^^'     ^^'  ^^'^^'  ^^'^^'  ^^'^^'     ^^'^^^^'^^' ^^  ^^'  ^^'   ^^'  ^^'  ^^'  ^^^'' ",
" /////''//'  //'  ////   ////'' //'  //'/////// //'  //'//'  //' /////''//'      /////''//'  //  /////''   //'   /////''  ///'  ",
"  '''''  ''   ''   ''''   ''''   ''   '' ''''''' ''   '' ''   ''  '''''  ''       '''__  ''   ''  '''''     ''    '''''    '''  ",
"                                                                                      ''                                        ",
"                                                                                                                                ",
"                                                                          ::::::::::::    <<<<<<<<<<<<  ######<<<<###<<<<<######",
"                                                                         ::::::::::::::  <<<<<<<<<<<<<< #####<<<<<<<<<<<<<<<####",
"                                                                >        ::::::::::::::  <::::::::::::< ####<<::<<:<<::<<:<<<###",
">>   >> >>   >> >>    >>>>>>>>>                                 (>       ::::::::::::::  :::::::::::::: ###<<<::<:::<::<<::<<<##",
",,'  ,,',,'  ,,',,'   ,,''''',,'                                ,,>      ::::::::::::::  :::::::::::::: ##<<:<<<<<:<<<<<<<::<<<#",
"))'  ))' )) ))'' ))  ))'     ))'                                )))>     ::::::::::::::  :::::::::::::: ##<::<<<<<<<<::<<:<<<<<#",
"!!'  !!' !!'!!'  !!' !!'    !!''                                !!!!>    ::::::::::::::  :::::::::::::: #<<:<<:<<:::<::<:::<<:<<",
"~~'  ~~'  ~~~''   ~~~~''   ~~''                                 ~~~~~>   ::::::::::::::  :::::::::::::: <<<<<<<<<<:<<<<<<:<<<<<<",
">>'> >>'  >>>'     >>''   >>''                  >>>>>>>         >>>>>>>  ::::::::::::::  :::::::::::::: <:<:<<<<::<<<:<<<<<::<<.",
"{{{{{{{' {{'{{     {{'   {{''                    '''''''        {{{{{{'' ::::::::::::::  :::::::::::::: <:::<<<<::<<:::<<<::<<<.",
"]]]']]]' ]]']]'    ]]'  ]]''                                    ]]]]]''  [::::::::::::[  :::::::::::::: .<:<<<<<<<<<<:<<<<<:<<<#",
"^^'' ^^'^^'' ^^    ^^'  ^^'        ^^      ^^                   ^^^^''   :[[[[[[[[[[[[:  :::::::::::::: .<<<<<:<<<<:<<<<<:<<<<<#",
"/''   /'//'  //'   //'  ///////   //''     //'                  ///''     ::::::::::::    ::::::::::::  #.::<:::<:<<<<<<:::<::.#",
" '     ' ''   ''    ''   '''''''   ''       ''                  __''                                    #.::<<:<:::<<::<<:<<::.#",
"                                                                }''                                     .<<<<<<<<:<<<::<<:<<<<<.",
"                                                                 '                                      .<<<<<<<<<<<<<<<<<<<<<<.",
"@@@@@@@@@@@@@@@.####@@@@@@@@@@@@@@@@@@@.@@@.####@$@$@$@.@$@$@$@@@@@@@@@@@$@$@$@.@$@$@$@@                .<<:<<<<<<<<<<<<<<<:<<..",
"@@@@@@@@@@@$@@@.##@@@@@@@@@$@@@@@@@$@@@.@@@@@.##$@@@@@$@@@@@@@$@$@@@@@$@$@@@@@@.$@@@@@$@                #.:::::<<<<<::<<<<:::<.#",
"@@@@@@@@@@@$@@@.#@@@@@@@@@@$@@@@@@@$@@@.@@@@@@.#@@@@@@@@@@@@@@@@@@@@@@@@@@@@@@@.@@@@@@@@                #..:<::<<:<<::<<::<:<<.#",
"@$$@@$$@@@@@@@@.#@@@@$$@@@@@@$$@@$$@@@@.@$$@@@.#$@@@@@$@@@@@@@$@$@@@@@$@$@@@@@@.$@@@@@$@                ##..<<<<:::<<<<<::<<<:.#",
"@@@@@@@@@@@@@@@.@@@@@@@@#@@@@@@@@@@@@@.#@@@@@@@.@@@@@@@@@@@@@@@@@@@@@@@@@@@@@@@.@@@@@@@@                ###...<<<:<<<::<<<<<..##",
"@@@@@@@@@@@$@@@.@@@$@@@@#.@@@@@@@@@@@@.#@@@$@@@.$@@@@@$@@@@@@@$@$@@@@@$@$@@@@@@.$@@@@@$@                ####...<<<<:<::<.<....##",
"@@@@@@@@@@@$@@@.@@@$@@@@##..@@@@@@@@..##@@@$@@@.@@@@@@@@@$@$@$@@@$@$@$@@@$@$@$@.@$@$@$@@                ######...<...<<....#####",
"........@@@@@@@.@@@@@@@.####........####@@@@@@@.........@@@@@@@@@@@@@@@.@@@@@@@.@@@@@@@.                #######..........#######",
"                                                                                                                                ",
"  ....     ..     ....    ....     ...   ......   ....   ......   ....    ....    ....   .....    ....   .....   ......  ...... ",
" ..%%..   ...    ..%%..  ..%%..   .%..   ..%%%%  ..%%%   %%%%..  ..%%..  ..%%..  ..%%..  ..%%..  ..%%..  ..%%..  ..%%%%  ..%%%% ",
" ..  ..   %..    %%  ..  %% ..%  .. ..   .....   .....      ..%  %....%  ..  ..  ..  ..  .....%  ..  %%  ..  ..  ....    ....   ",
" ..  ..    ..     ....%     %..  .. ..   %%%%..  ..%%..    ..%   ..%%..  %.....  ......  ..%%..  ..      ..  ..  ..%%    ..%%   ",
" ..  ..    ..    ..%%%   ..  ..  ......  ..  ..  ..  ..    ..    ..  ..   %%%..  ..%%..  ..  ..  ..  ..  ..  ..  ..      ..     ",
" %....%  ......  ......  %....%  %%%..%  %....%  %....%    ..    %....%   ....%  ..  ..  .....%  %....%  .....%  ......  ..     ",
"  %%%%   %%%%%%  %%%%%%   %%%%      %%    %%%%    %%%%     %%     %%%%    %%%%   %%  %%  %%%%%    %%%%   %%%%%   %%%%%%  %%     ",
"                                                                                                                                ",
"  ....   ..  ..   ....       ..  ..  ..  ..      .    .  .   ..   ....   .....    ....   .....    ....   ......  ..  ..  ..  .. ",
" ..%%..  ..  ..   %..%       ..  .. ..%  ..      ..  ..  ..  ..  ..%%..  ..%%..  ..%%..  ..%%..  ..%%%   %%..%%  ..  ..  ..  .. ",
" ..  %%  ......    ..        ..  ....%   ..      ......  ... ..  ..  ..  ..  ..  ..  ..  ..  ..  %....     ..    ..  ..  ..  .. ",
" .. ...  ..%%..    ..        ..  ..%..   ..      ......  ..%...  ..  ..  .....%  .. ...  .....%   %%%..    ..    ..  ..  ..  .. ",
" .. %..  ..  ..    ..    ..  ..  .. %..  ..      ..%%..  .. %..  ..  ..  ..%%%   .. ..%  ..%%..  ..  ..    ..    ..  ..  %....% ",
" %....%  ..  ..   ....   %....%  ..  ..  ......  ..  ..  ..  %.  %....%  ..      %..%..  ..  ..  %....%    ..    %....%   %..%  ",
"  %%%%   %%  %%   %%%%    %%%%   %%  %%  %%%%%%  %%  %%  %%   %   %%%%   %%       %% %%  %%  %%   %%%%     %%     %%%%     %%   ",
"                                                                        || || ||   =      ....   .@$@.. 1######1..++++..        ",
" ..  ..  ..  ..  ..  ..  ......                                   ..    |      |    =    .<:<..  .@$@.. ##1111##.++++...        ",
" ..  ..  ..  ..  ..  ..  %%%..%                                   %..               ==   .::<<.  .@@@.. #11##11#++++....        ",
" ..  ..  %....%  %....%    ..%                   ......            %..  |      |  ==;==  .<:<..  .@$@.. #####11#+++....+        ",
" ......   ....    %..%    ..%      ..            %%%%%%            ..%  |      | =;;;==  .<<<<.  .@$@.. ###111##++....++        ",
" ..%%..  ..%%..    ..    ..%       ..      ..                     ..%            =;;;==   .<..   .@@@.. ########+....+++        ",
" .%  %.  ..  ..    ..    ......   ..%      ..                     %%    |      | ==;===    ..    .@$@.. ###11###....++++        ",
" %    %  %%  %%    %%    %%%%%%   %%       %%                           || || ||  ====    .|..   .@$@.. 1######1...++++.        "};
