/* XPM */
static char * textures_xpm[] = {
"128 128 22 1",
" 	c None",
".	c #30346D",
"+	c #597DCE",
"@	c #140C1C",
"#	c #6DC2CA",
"$	c #442434",
"%	c #D27D2C",
"&	c #757161",
"*	c #4E4A4E",
"=	c #D3BD50",
"-	c #E6D662",
";	c #EEE26A",
">	c #F5EC70",
",	c #E8DB63",
"'	c #DBCA56",
")	c #CCB646",
"!	c #BD9F35",
"~	c #B0952E",
"{	c #AF942F",
"]	c #C3A73E",
"^	c #BDA43C",
"/	c #D0B94B",
".......+...............+...............+...............+...............+...............+........@@@@@@@@@@@@@@@@@@@@@@@@@@@@@@@@",
".......+...............+...............+...............+...............+...............+........@@@@@@@@@@@@@@@@@@@@@@@@@@@@@@@@",
".......+...............+...............+...............+...............+...............+........@@@@@@@@@@@@@@@@@@@@@@@@@@@@@@@@",
".......#...............#...............#...............#...............#...............#........@@@@@@@@@@@@@@@@@@@@@@@@@@@@@@@@",
".......+...............+...............+...............+...............+...............+........@@@@@@@@@@@@@@@@@@@@@@@@@@@@@@@@",
".......#...............#...............#...............#...............#...............#........@@@@@@@@@@@@@@@@@@@@@@@@@@@@@@@@",
".......#...............#...............#...............#...............#...............#........@@@@@@@@@@@@@@@@@@@@@@@@@@@@@@@@",
"+++#+#####+#+++++++#+#####+#+++++++#+#####+#+++++++#+#####+#+++++++#+#####+#+++++++#+#####+#++++@@@@@@@@@@@@@@@@@@@@@@@@@@@@@@@@",
".......#$$$$$$$$$$$$$$$$$$$$$$$$$$$$$$$#...............#...............................+........@@@@@@@@@@@@@@@@@@@@@@@@@@@@@@@@",
".......#$..............................#...............#.%%%%%%%%%%%%%%%%%%%%%%%%%%%%%%+........@@@@@@@@@@@@@@@@@@@@@@@@@@@@@@@@",
".......+$..............................+...............+.&%%%%%%%%%%%%%%%%%%%%%%%%%%%%*$........@@@@@@@@@@@@@@@@@@@@@@@@@@@@@@@@",
".......#$..............................#...............#.&&@@@@@@@@@@@@@@@@@@@@@@@@@@**+$.......@@@@@@@@@@@@@@@@@@@@@@@@@@@@@@@@",
".......+$..............................+...............+.&&@@@@@@@@@@@@@@@@@@@@@@@@@@**$.$......@@@@@@@@@@@@@@@@@@@@@@@@@@@@@@@@",
".......+$..............................+...............+.&&@@@@@@@@@@@@@@@@@@@@@@@@@@**+$.$.....@@@@@@@@@@@@@@@@@@@@@@@@@@@@@@@@",
".......+$..............................+...............+.&&@@@@@@@@@@@@@@@@@@@@@@@@@@**$.$.$....@@@@@@@@@@@@@@@@@@@@@@@@@@@@@@@@",
".......+$..............................+...............+.&&@@@@@@@@@@@@@@@@@@@@@@@@@@**+$.$.$...@@@@@@@@@@@@@@@@@@@@@@@@@@@@@@@@",
".......+$..............................+...............+.&&@@@@@@@@@@@@@@@@@@@@@@@@@@**$.$.$.$..@@@@@@@@@@@@@@@@@@@@@@@@@@@@@@@@",
".......+$..............................+...............+.&&@@@@@@@@@@@@@@@@@@@@@@@@@@**+$.$.$.$.@@@@@@@@@@@@@@@@@@@@@@@@@@@@@@@@",
".......+$..............................+...............+.&&@@@@@@@@@@@@@@@@@@@@@@@@@@**$.$.$.$.$@@@@@@@@@@@@@@@@@@@@@@@@@@@@@@@@",
".......#$..............................#...............#.&&@@@@@@@@@@@@@@@@@@@@@@@@@@**+$.$.$.$.@@@@@@@@@@@@@@@@@@@@@@@@@@@@@@@@",
".......+$..............................+...............+.&&@@@@@@@@@@@@@@@@@@@@@@@@@@**$.$.$.$.$@@@@@@@@@@@@@@@@@@@@@@@@@@@@@@@@",
".......#$..............................#...............#.&&@@@@@@@@@@@@@@@@@@@@@@@@@@**+$.$.$.$.@@@@@@@@@@@@@@@@@@@@@@@@@@@@@@@@",
".......#$..............................#...............#.&&@@@@@@@@@@@@@@@@@@@@@@@@@@**$.$.$.$.$@@@@@@@@@@@@@@@@@@@@@@@@@@@@@@@@",
"+++++###$..............................###+#+++++++++###.&&@@@@@@@@@@@@@@@@@@@@@@@@@@**+$#$#$+$+@@@@@@@@@@@@@@@@@@@@@@@@@@@@@@@@",
".......#$..............................#...............#.&&@@@@@@@@@@@@@@@@@@@@@@@@@@**$.$.$.$.$@@@@@@@@@@@@@@@@@@@@@@@@@@@@@@@@",
".......#$..............................#...............#.&&@@@@@@@@@@@@@@@@@@@@@@@@@@**+$.$.$.$.@@@@@@@@@@@@@@@@@@@@@@@@@@@@@@@@",
".......+$..............................+...............+.&&@@@@@@@@@@@@@@@@@@@@@@@@@@**$.$.$.$.$@@@@@@@@@@@@@@@@@@@@@@@@@@@@@@@@",
".......#$..............................#...............#.&&@@@@@@@@@@@@@@@@@@@@@@@@@@**+$.$.$.$.@@@@@@@@@@@@@@@@@@@@@@@@@@@@@@@@",
".......+$..............................+...............+.&&@@@@@@@@@@@@@@@@@@@@@@@@@@**$.$.$.$.$@@@@@@@@@@@@@@@@@@@@@@@@@@@@@@@@",
".......+$..............................+...............+.&&@@@@@@@@@@@@@@@@@@@@@@@@@@**+$.$.$.$.@@@@@@@@@@@@@@@@@@@@@@@@@@@@@@@@",
".......+$..............................+...............+.&&@@@@@@@@@@@@@@@@@@@@@@@@@@**$.$.$.$.$@@@@@@@@@@@@@@@@@@@@@@@@@@@@@@@@",
".......+$..............................+...............+.&&@@@@@@@@@@@@@@@@@@@@@@@@@@**+$.$.$.$.@@@@@@@@@@@@@@@@@@@@@@@@@@@@@@@@",
".......+$..............................+...............+.&&@@@@@@@@@@@@@@@@@@@@@@@@@@**$.$.$.$.$@@@@@@@@@@@@@@@@@@@@@@@@@@@@@@@@",
".......+$..............................+...............+.&&@@@@@@@@@@@@@@@@@@@@@@@@@@**+$.$.$.$.@@@@@@@@@@@@@@@@@@@@@@@@@@@@@@@@",
".......+$..............................#...............+.&&@@@@@@@@@@@@@@@@@@@@@@@@@@**$.$.$.$.$@@@@@@@@@@@@@@@@@@@@@@@@@@@@@@@@",
".......#$..............................+...............#.&&@@@@@@@@@@@@@@@@@@@@@@@@@@**+$.$.$.$.@@@@@@@@@@@@@@@@@@@@@@@@@@@@@@@@",
".......+$..............................#...............+.&&@@@@@@@@@@@@@@@@@@@@@@@@@@**$.$.$.$.$@@@@@@@@@@@@@@@@@@@@@@@@@@@@@@@@",
".......#$..............................#...............#.&$$$$$$$$$$$$$$$$$$$$$$$$$$$$*+$.$.$.$.@@@@@@@@@@@@@@@@@@@@@@@@@@@@@@@@",
".......#$..............................#...............#.$$$$$$$$$$$$$$$$$$$$$$$$$$$$$$$.$.$.$.$@@@@@@@@@@@@@@@@@@@@@@@@@@@@@@@@",
"+++#+#####+#+++++++#+#####+#++++++#+#######+#++++++#+###++$+$+$+$+$+$+$+$+$+$+$+$+$+$+$+$#$+$+$+@@@@@@@@@@@@@@@@@@@@@@@@@@@@@@@@",
".......#...............#...............#...............#...$.$.$.$.$.$.$.$.$.$.$.$.$.$.$.$.$.$.$@@@@@@@@@@@@@@@@@@@@@@@@@@@@@@@@",
".......#...............#...............#...............#....$.$.$.$.$.$#$.$.$.$.$.$.$.$#$.$.$.$.@@@@@@@@@@@@@@@@@@@@@@@@@@@@@@@@",
".......+...............+...............+...............+.....$.$.$.$.$.$.$.$.$.$.$.$.$.$.$.$.$.$@@@@@@@@@@@@@@@@@@@@@@@@@@@@@@@@",
".......#...............#...............#...............#......$.$.$.$.$#$.$.$.$.$.$.$.$#$.$.$.$.@@@@@@@@@@@@@@@@@@@@@@@@@@@@@@@@",
".......+...............+...............+...............+.......$.$.$.$.$.$.$.$.$.$.$.$.$.$.$.$.$@@@@@@@@@@@@@@@@@@@@@@@@@@@@@@@@",
".......+...............+...............+...............+........$.$.$.$+$.$.$.$.$.$.$.$+$.$.$.$.@@@@@@@@@@@@@@@@@@@@@@@@@@@@@@@@",
".......+...............+...............+...............+.........$.$.$.$.$.$.$.$.$.$.$.$.$.$.$.$@@@@@@@@@@@@@@@@@@@@@@@@@@@@@@@@",
".......+...............+...............+...............+..........$.$.$+$.$.$.$.$.$.$.$+$.$.$.$.@@@@@@@@@@@@@@@@@@@@@@@@@@@@@@@@",
"@@@@@@@@@@@@@@@@@@@@@@@@@@@@@@@@@@@@@@@@@@@@@@@@@@@@@@@@@@@@@@@@@@@@@@@@@@@@@@@@@@@@@@@@@@@@@@@@@@@@@@@@@@@@@@@@@@@@@@@@@@@@@@@@",
"@@@@@@@@@@@@@@@@@@@@@@@@@@@@@@@@@@@@@@@@@@@@@@@@@@@@@@@@@@@@@@@@@@@@@@@@@@@@@@@@@@@@@@@@@@@@@@@@@@@@@@@@@@@@@@@@@@@@@@@@@@@@@@@@",
"@@@@@@@@@@@@@@@@@@@@@@@@@@@@@@@@@@@@@@@@@@@@@@@@@@@@@@@@@@@@@@@@@@@@@@@@@@@@@@@@@@@@@@@@@@@@@@@@@@@@@@@@@@@@@@@@@@@@@@@@@@@@@@@@",
"@=====@@@@@==@@@@=====@@@=====@@@@@@@==@=======@@@====@@=======@@=====@@@=====@@@=====@@======@@@=====@@=====@@@=======@=======@",
"--@@@--@@@---@@@--@@@--@--@@@--@@@@@---@--@@@@@@@--@@@@@@@@@@--@--@@@--@--@@@--@--@@@--@--@@@--@--@@@--@--@@--@@--@@@@@@--@@@@@@",
";;@@@;;@@;;;;@@@;;@@@;;@;;@@@;;@@@@;;;;@;;@@@@@@;;@@@@@@@@@@@;;@;;@@@;;@;;@@@;;@;;@@@;;@;;@@@;;@;;@@@;;@;;@@@;;@;;@@@@@@;;@@@@@@",
">>@@>>>@@@@>>@@@@@@@@>>@@@@@@>>@@@>>@>>@>>@@@@@@>>@@@@@@@@@@>>@@>>@@@>>@>>@@@>>@>>@@@>>@>>@@@>>@>>@@@@@@>>@@@>>@>>@@@@@@>>@@@@@@",
",,@,,,,@@@@,,@@@@@@@,,@@@@,,,,@@@,,@@,,@,,,,,,@@,,,,,,@@@@@@,,@@@,,,,,@@,,@@@,,@,,@@@,,@,,,,,,@@,,@@@@@@,,@@@,,@,,,,,@@@,,,,,@@@",
"''''@''@@@@''@@@@@@''@@@@@@@@''@''@@@''@@@@@@''@''@@@''@@@@''@@@''@@@''@@''''''@'''''''@''@@@''@''@@@@@@''@@@''@''@@@@@@''@@@@@@",
")))@@))@@@@))@@@@@))@@@@@@@@@))@)))))))@@@@@@))@))@@@))@@@@))@@@))@@@))@@@@@@))@))@@@))@))@@@))@))@@@@@@))@@@))@))@@@@@@))@@@@@@",
"!!@@@!!@@@@!!@@@@!!@@@@@!!@@@!!@@@@@@!!@@@@@@!!@!!@@@!!@@@!!@@@@!!@@@!!@@@@@@!!@!!@@@!!@!!@@@!!@!!@@@!!@!!@@@!!@!!@@@@@@!!@@@@@@",
"~~@@@~~@@@@~~@@@~~@@@@@@~~@@@~~@@@@@@~~@~~@@@~~@~~@@@~~@@@~~@@@@~~@@@~~@@@@@~~@@~~@@@~~@~~@@@~~@~~@@@~~@~~@@~~@@~~@@@@@@~~@@@@@@",
"@{{{{{@@@{{{{{{@{{{{{{{@@{{{{{@@@@@@@{{@@{{{{{@@@{{{{{@@@@{{@@@@@{{{{{@@@{{{{@@@{{@@@{{@{{{{{{@@@{{{{{@@{{{{{@@@{{{{{{{@{{@@@@@@",
"@@@@@@@@@@@@@@@@@@@@@@@@@@@@@@@@@@@@@@@@@@@@@@@@@@@@@@@@@@@@@@@@@@@@@@@@@@@@@@@@@@@@@@@@@@@@@@@@@@@@@@@@@@@@@@@@@@@@@@@@@@@@@@@@",
"@@@@@@@@@@@@@@@@@@@@@@@@@@@@@@@@@@@@@@@@@@@@@@@@@@@@@@@@@@@@@@@@@@@@@@@@@@@@@@@@@@@@@@@@@@@@@@@@@@@@@@@@@@@@@@@@@@@@@@@@@@@@@@@@",
"@@@@@@@@@@@@@@@@@@@@@@@@@@@@@@@@@@@@@@@@@@@@@@@@@@@@@@@@@@@@@@@@@@@@@@@@@@@@@@@@@@@@@@@@@@@@@@@@@@@@@@@@@@@@@@@@@@@@@@@@@@@@@@@@",
"@@@@@@@@@@@@@@@@@@@@@@@@@@@@@@@@@@@@@@@@@@@@@@@@@@@@@@@@@@@@@@@@@@@@@@@@@@@@@@@@@@@@@@@@@@@@@@@@@@@@@@@@@@@@@@@@@@@@@@@@@@@@@@@@",
"@@@@@@@@@@@@@@@@@@@@@@@@@@@@@@@@@@@@@@@@@@@@@@@@@@@@@@@@@@@@@@@@@@@@@@@@@@@@@@@@@@@@@@@@@@@@@@@@@@@@@@@@@@@@@@@@@@@@@@@@@@@@@@@@",
"@@@@@@@@@@@@@@@@@@@@@@@@@@@@@@@@@@@@@@@@@@@@@@@@@@@@@@@@@@@@@@@@@@@@@@@@@@@@@@@@@@@@@@@@@@@@@@@@@@@@@@@@@@@@@@@@@@@@@@@@@@@@@@@@",
"@=====@@==@@@==@@@====@@@@@====@==@@@==@==@@@@@@=@@@@@=@==@@@==@@=====@@======@@@=====@@======@@@=====@@==========@@@==@==@@@==@",
"--@@@--@--@@@--@@@@--@@@@@@@--@@--@@@--@--@@@@@@--@@@--@--@@@--@--@@@--@--@@@--@--@@@--@--@@@--@--@@@--@@@@--@@@--@@@--@--@@@--@",
";;@@@;;@;;@@@;;@@@@;;@@@@@@@;;@@;;@@;;@@;;@@@@@@;;;@;;;@;;@@@;;@;;@@@;;@;;@@@;;@;;@@@;;@;;@@@;;@;;@@@@@@@@@;;@@@;;@@@;;@;;@@@;;@",
">>@@@@@@>>@@@>>@@@@>>@@@@@@@>>@@>>@>>@@@>>@@@@@@>>>>>>>@>>>@@>>@>>@@@>>@>>@@@>>@>>@@@>>@>>@@@>>@>>@@@@@@@@@>>@@@>>@@@>>@>>@@@>>@",
",,@@@@@@,,,,,,,@@@@,,@@@@@@@,,@@,,,,@@@@,,@@@@@@,,@,@,,@,,,,@,,@,,@@@,,@,,@@@,,@,,@@@,,@,,@@@,,@@,,,,,@@@@@,,@@@,,@@@,,@,,@@@,,@",
"''@''''@''@@@''@@@@''@@@@@@@''@@''''@@@@''@@@@@@''@@@''@''@''''@''@@@''@''''''@@''@@@''@''''''@@@@@@@''@@@@''@@@''@@@''@@''@''@@",
"))@@@))@))@@@))@@@@))@@@@@@@))@@))@))@@@))@@@@@@))@@@))@))@@)))@))@@@))@))@@@@@@))@@@))@))))@@@@@@@@@))@@@@))@@@))@@@))@@))@))@@",
"!!@@@!!@!!@@@!!@@@@!!@@@!!@@!!@@!!@@!!@@!!@@@@@@!!@@@!!@!!@@@!!@!!@@@!!@!!@@@@@@!!@@@!!@!!@!!@@@!!@@@!!@@@@!!@@@!!@@@!!@@!!@!!@@",
"~~@@@~~@~~@@@~~@@@@~~@@@~~@@~~@@~~@@@~~@~~@@@@@@~~@@@~~@~~@@@~~@~~@@@~~@~~@@@@@@~~@~~~~@~~@@~~@@~~@@@~~@@@@~~@@@~~@@@~~@@@~~~@@@",
"@{{{{{@@{{@@@{{@@@{{{{@@@{{{{@@@{{@@@{{@{{{{{{{@{{@@@{{@{{@@@{{@@{{{{{@@{{@@@@@@@{{{{{@@{{@@@{{@@{{{{{@@@@@{{@@@@{{{{{@@@@{{{@@@",
"@@@@@@@@@@@@@@@@@@@@@@@@@@@@@@@@@@@@@@@@@@@@@@@@@@@@@@@@@@@@@@@@@@@@@@@@@@@@@@@@@@@@@]]@@@@@@@@@@@@@@@@@@@@@@@@@@@@@@@@@@@@@@@@@",
"@@@@@@@@@@@@@@@@@@@@@@@@@@@@@@@@@@@@@@@@@@@@@@@@@@@@@@@@@@@@@@@@@@@@@@@@@@@@@@@@@@@@@@@@@@@@@@@@@@@@@@@@@@@@@@@@@@@@@@@@@@@@@@@@",
"@@@@@@@@@@@@@@@@@@@@@@@@@@@@@@@@@@@@@@@@@@@@@@@@@@@@@@@@@@@@@@@@@@@@@@@@@@@@@@@@@@@@@@@@@@@@@@@@@@@@@@@@@@@@@@@@@@@@@@@@@@@@@@@@",
"@@@@@@@@@@@@@@@@@@@@@@@@@@@@@@@@@@@@@@@@@@@@@@@@@@@@@@@@@@@@@@@@@@@@@@@@@@@@@@@@@@@@@@@@@@@@@@@@@@@@@@@@@@@@@@@@@@@@@@@@@@@@@@@@",
"@@@@@@@@@@@@@@@@@@@@@@@@@@@@@@@@@@@@@@@@@@@@@@@@@@@@@@@@@@@@@@@@@@@@@@@@@@@@@@@@@@@@@@@@@@@@@@@@@@@@@@@@@@@@@@@@@@@@@@@@@@@@@@@@",
"@@@@@@@@@@@@@@@@@@@@@@@@@@@@@@@@@@@@@@@@@@@@@@@@@@@@@@@@@@@@@@@@^@@@@@@@@@@@@@@@@@@@@@@@@@@@@@@@@@@@@@@@@@@@@@@@@@@@@@@@@@@@@@@@",
"==@@@==@==@@@==@==@@@@=========@@@@@@@@@@@@@@@@@@@@@@@@@@@@@@@@@==@@@@@@@@@@@@@@@@@@@@@@@@@@@@@@@@@@@@@@@@@@@@@@@@@@@@@@@@@@@@@@",
"--@@@--@--@@@--@--@@@@--@@@@@--@@@@@@@@@@@@@@@@@@@@@@@@@@@@@@@@@---@@@@@@@@@@@@@@@@@@@@@@@@@@@@@@@@@@@@@@@@@@@@@@@@@@@@@@@@@@@@@",
";;@@@;;@@;;@;;@@@;;@@;;@@@@@@;;@@@@@@@@@@@@@@@@@@@@@@@@@@@@@@@@@;;;;@@@@@@@@@@@@@@@@@@@@@@@@@@@@@@@@@@@@@@@@@@@@@@@@@@@@@@@@@@@@",
">>@@@>>@@>>@>>@@@>>@@>>@@@@@>>@@@@@@@@@@@@@@@@@@@@@@@@@@@@@@@@@@>>>>>@@@@@@@@@@@@@@@@@@@@@@@@@@@@@@@@@@@@@@@@@@@@@@@@@@@@@@@@@@@",
",,@@@,,@@@,,,@@@@@,,,,@@@@@,,@@@@@@@@@@@@@@@@@@@@@@@@@@@@@@@@@@@,,,,,,@@@@@@@@@@@@@@@@@@@@@@@@@@@@@@@@@@@@@@@@@@@@@@@@@@@@@@@@@@",
"''@'@''@@@'''@@@@@@''@@@@@''@@@@@@@@@@@@@@@@@@@@'''''''@@@@@@@@@'''''''@@@@@@@@@@@@@@@@@@@@@@@@@@@@@@@@@@@@@@@@@@@@@@@@@@@@@@@@@",
")))))))@@))@))@@@@@))@@@@))@@@@@@@@@@@@@@@@@@@@@@@@@@@@@@@@@@@@@))))))@@@@@@@@@@@@@@@@@@@@@@@@@@@@@@@@@@@@@@@@@@@@@@@@@@@@@@@@@@",
"!!!@!!!@@!!@!!@@@@@!!@@@!!@@@@@@@@@@@@@@@@@@@@@@@@@@@@@@@@@@@@@@!!!!!@@@@@@@@@@@@@@@@@@@@@@@@@@@@@@@@@@@@@@@@@@@@@@@@@@@@@@@@@@@",
"~~@@@~~@~~@@@~~@@@@~~@@@~~@@@@@@@@@~~@@@@@@~~@@@@@@@@@@@@@@@@@@@~~~~@@@@@@@@@@@@@@@@@@@@@@@@@@@@@@@@@@@@@@@@@@@@@@@@@@@@@@@@@@@@",
"{@@@@@{@{{@@@{{@@@@{{@@@{{{{{{{@@@{{@@@@@@@{{@@@@@@@@@@@@@@@@@@@{{{@@@@@@@@@@@@@@@@@@@@@@@@@@@@@@@@@@@@@@@@@@@@@@@@@@@@@@@@@@@@@",
"@@@@@@@@@@@@@@@@@@@@@@@@@@@@@@@@@@@@@@@@@@@@@@@@@@@@@@@@@@@@@@@@]]@@@@@@@@@@@@@@@@@@@@@@@@@@@@@@@@@@@@@@@@@@@@@@@@@@@@@@@@@@@@@@",
"@@@@@@@@@@@@@@@@@@@@@@@@@@@@@@@@@@@@@@@@@@@@@@@@@@@@@@@@@@@@@@@@/@@@@@@@@@@@@@@@@@@@@@@@@@@@@@@@@@@@@@@@@@@@@@@@@@@@@@@@@@@@@@@@",
"@@@@@@@@@@@@@@@@@@@@@@@@@@@@@@@@@@@@@@@@@@@@@@@@@@@@@@@@@@@@@@@@@@@@@@@@@@@@@@@@@@@@@@@@@@@@@@@@@@@@@@@@@@@@@@@@@@@@@@@@@@@@@@@@",
"@@@@@@@@@@@@@@@@@@@@@@@@@@@@@@@@@@@@@@@@@@@@@@@@@@@@@@@@@@@@@@@@@@@@@@@@@@@@@@@@@@@@@@@@@@@@@@@@@@@@@@@@@@@@@@@@@@@@@@@@@@@@@@@@",
"@@@@@@@@@@@@@@@@@@@@@@@@@@@@@@@@@@@@@@@@@@@@@@@@@@@@@@@@@@@@@@@@@@@@@@@@@@@@@@@@@@@@@@@@@@@@@@@@@@@@@@@@@@@@@@@@@@@@@@@@@@@@@@@@",
"@@@@@@@@@@@@@@@@@@@@@@@@@@@@@@@@@@@@@@@@@@@@@@@@@@@@@@@@@@@@@@@@@@@@@@@@@@@@@@@@@@@@@@@@@@@@@@@@@@@@@@@@@@@@@@@@@@@@@@@@@@@@@@@@",
"@@@@@@@@@@@@@@@@@@@@@@@@@@@@@@@@@@@@@@@@@@@@@@@@@@@@@@@@@@@@@@@@@@@@@@@@@@@@@@@@@@@@@@@@@@@@@@@@@@@@@@@@@@@@@@@@@@@@@@@@@@@@@@@@",
"@@@@@@@@@@@@@@@@@@@@@@@@@@@@@@@@@@@@@@@@@@@@@@@@@@@@@@@@@@@@@@@@@@@@@@@@@@@@@@@@@@@@@@@@@@@@@@@@@@@@@@@@@@@@@@@@@@@@@@@@@@@@@@@@",
"@@@@@@@@@@@@@@@@@@@@@@@@@@@@@@@@@@@@@@@@@@@@@@@@@@@@@@@@@@@@@@@@@@@@@@@@@@@@@@@@@@@@@@@@@@@@@@@@@@@@@@@@@@@@@@@@@@@@@@@@@@@@@@@@",
"@@@@@@@@@@@@@@@@@@@@@@@@@@@@@@@@@@@@@@@@@@@@@@@@@@@@@@@@@@@@@@@@@@@@@@@@@@@@@@@@@@@@@@@@@@@@@@@@@@@@@@@@@@@@@@@@@@@@@@@@@@@@@@@@",
"@@@@@@@@@@@@@@@@@@@@@@@@@@@@@@@@@@@@@@@@@@@@@@@@@@@@@@@@@@@@@@@@@@@@@@@@@@@@@@@@@@@@@@@@@@@@@@@@@@@@@@@@@@@@@@@@@@@@@@@@@@@@@@@@",
"@@@@@@@@@@@@@@@@@@@@@@@@@@@@@@@@@@@@@@@@@@@@@@@@@@@@@@@@@@@@@@@@@@@@@@@@@@@@@@@@@@@@@@@@@@@@@@@@@@@@@@@@@@@@@@@@@@@@@@@@@@@@@@@@",
"@@@@@@@@@@@@@@@@@@@@@@@@@@@@@@@@@@@@@@@@@@@@@@@@@@@@@@@@@@@@@@@@@@@@@@@@@@@@@@@@@@@@@@@@@@@@@@@@@@@@@@@@@@@@@@@@@@@@@@@@@@@@@@@@",
"@@@@@@@@@@@@@@@@@@@@@@@@@@@@@@@@@@@@@@@@@@@@@@@@@@@@@@@@@@@@@@@@@@@@@@@@@@@@@@@@@@@@@@@@@@@@@@@@@@@@@@@@@@@@@@@@@@@@@@@@@@@@@@@@",
"@@@@@@@@@@@@@@@@@@@@@@@@@@@@@@@@@@@@@@@@@@@@@@@@@@@@@@@@@@@@@@@@@@@@@@@@@@@@@@@@@@@@@@@@@@@@@@@@@@@@@@@@@@@@@@@@@@@@@@@@@@@@@@@@",
"@@@@@@@@@@@@@@@@@@@@@@@@@@@@@@@@@@@@@@@@@@@@@@@@@@@@@@@@@@@@@@@@@@@@@@@@@@@@@@@@@@@@@@@@@@@@@@@@@@@@@@@@@@@@@@@@@@@@@@@@@@@@@@@@",
"@@@@@@@@@@@@@@@@@@@@@@@@@@@@@@@@@@@@@@@@@@@@@@@@@@@@@@@@@@@@@@@@@@@@@@@@@@@@@@@@@@@@@@@@@@@@@@@@@@@@@@@@@@@@@@@@@@@@@@@@@@@@@@@@",
"@@@@@@@@@@@@@@@@@@@@@@@@@@@@@@@@@@@@@@@@@@@@@@@@@@@@@@@@@@@@@@@@@@@@@@@@@@@@@@@@@@@@@@@@@@@@@@@@@@@@@@@@@@@@@@@@@@@@@@@@@@@@@@@@",
"@@@@@@@@@@@@@@@@@@@@@@@@@@@@@@@@@@@@@@@@@@@@@@@@@@@@@@@@@@@@@@@@@@@@@@@@@@@@@@@@@@@@@@@@@@@@@@@@@@@@@@@@@@@@@@@@@@@@@@@@@@@@@@@@",
"@@@@@@@@@@@@@@@@@@@@@@@@@@@@@@@@@@@@@@@@@@@@@@@@@@@@@@@@@@@@@@@@@@@@@@@@@@@@@@@@@@@@@@@@@@@@@@@@@@@@@@@@@@@@@@@@@@@@@@@@@@@@@@@@",
"@@@@@@@@@@@@@@@@@@@@@@@@@@@@@@@@@@@@@@@@@@@@@@@@@@@@@@@@@@@@@@@@@@@@@@@@@@@@@@@@@@@@@@@@@@@@@@@@@@@@@@@@@@@@@@@@@@@@@@@@@@@@@@@@",
"@@@@@@@@@@@@@@@@@@@@@@@@@@@@@@@@@@@@@@@@@@@@@@@@@@@@@@@@@@@@@@@@@@@@@@@@@@@@@@@@@@@@@@@@@@@@@@@@@@@@@@@@@@@@@@@@@@@@@@@@@@@@@@@@",
"@@@@@@@@@@@@@@@@@@@@@@@@@@@@@@@@@@@@@@@@@@@@@@@@@@@@@@@@@@@@@@@@@@@@@@@@@@@@@@@@@@@@@@@@@@@@@@@@@@@@@@@@@@@@@@@@@@@@@@@@@@@@@@@@",
"@@@@@@@@@@@@@@@@@@@@@@@@@@@@@@@@@@@@@@@@@@@@@@@@@@@@@@@@@@@@@@@@@@@@@@@@@@@@@@@@@@@@@@@@@@@@@@@@@@@@@@@@@@@@@@@@@@@@@@@@@@@@@@@@",
"@@@@@@@@@@@@@@@@@@@@@@@@@@@@@@@@@@@@@@@@@@@@@@@@@@@@@@@@@@@@@@@@@@@@@@@@@@@@@@@@@@@@@@@@@@@@@@@@@@@@@@@@@@@@@@@@@@@@@@@@@@@@@@@@",
"@@@@@@@@@@@@@@@@@@@@@@@@@@@@@@@@@@@@@@@@@@@@@@@@@@@@@@@@@@@@@@@@@@@@@@@@@@@@@@@@@@@@@@@@@@@@@@@@@@@@@@@@@@@@@@@@@@@@@@@@@@@@@@@@",
"@@@@@@@@@@@@@@@@@@@@@@@@@@@@@@@@@@@@@@@@@@@@@@@@@@@@@@@@@@@@@@@@@@@@@@@@@@@@@@@@@@@@@@@@@@@@@@@@@@@@@@@@@@@@@@@@@@@@@@@@@@@@@@@@",
"@@@@@@@@@@@@@@@@@@@@@@@@@@@@@@@@@@@@@@@@@@@@@@@@@@@@@@@@@@@@@@@@@@@@@@@@@@@@@@@@@@@@@@@@@@@@@@@@@@@@@@@@@@@@@@@@@@@@@@@@@@@@@@@@",
"@@@@@@@@@@@@@@@@@@@@@@@@@@@@@@@@@@@@@@@@@@@@@@@@@@@@@@@@@@@@@@@@@@@@@@@@@@@@@@@@@@@@@@@@@@@@@@@@@@@@@@@@@@@@@@@@@@@@@@@@@@@@@@@@",
"@@@@@@@@@@@@@@@@@@@@@@@@@@@@@@@@@@@@@@@@@@@@@@@@@@@@@@@@@@@@@@@@@@@@@@@@@@@@@@@@@@@@@@@@@@@@@@@@@@@@@@@@@@@@@@@@@@@@@@@@@@@@@@@@",
"@@@@@@@@@@@@@@@@@@@@@@@@@@@@@@@@@@@@@@@@@@@@@@@@@@@@@@@@@@@@@@@@@@@@@@@@@@@@@@@@@@@@@@@@@@@@@@@@@@@@@@@@@@@@@@@@@@@@@@@@@@@@@@@@",
"@@@@@@@@@@@@@@@@@@@@@@@@@@@@@@@@@@@@@@@@@@@@@@@@@@@@@@@@@@@@@@@@@@@@@@@@@@@@@@@@@@@@@@@@@@@@@@@@@@@@@@@@@@@@@@@@@@@@@@@@@@@@@@@@",
"@@@@@@@@@@@@@@@@@@@@@@@@@@@@@@@@@@@@@@@@@@@@@@@@@@@@@@@@@@@@@@@@@@@@@@@@@@@@@@@@@@@@@@@@@@@@@@@@@@@@@@@@@@@@@@@@@@@@@@@@@@@@@@@@",
"@@@@@@@@@@@@@@@@@@@@@@@@@@@@@@@@@@@@@@@@@@@@@@@@@@@@@@@@@@@@@@@@@@@@@@@@@@@@@@@@@@@@@@@@@@@@@@@@@@@@@@@@@@@@@@@@@@@@@@@@@@@@@@@@",
"@@@@@@@@@@@@@@@@@@@@@@@@@@@@@@@@@@@@@@@@@@@@@@@@@@@@@@@@@@@@@@@@@@@@@@@@@@@@@@@@@@@@@@@@@@@@@@@@@@@@@@@@@@@@@@@@@@@@@@@@@@@@@@@@"};
