/* XPM */
static char * textures_xpm[] = {
"128 128 25 1",
" 	c None",
".	c #30346D",
"+	c #597DCE",
"@	c #DEEED6",
"#	c #757161",
"$	c #D2AA99",
"%	c #6DC2CA",
"&	c #442434",
"*	c #D27D2C",
"=	c #4E4A4E",
"-	c #140C1C",
";	c #D3BD50",
">	c #E6D662",
",	c #000000",
"'	c #EEE26A",
")	c #F5EC70",
"!	c #E8DB63",
"~	c #DBCA56",
"{	c #CCB646",
"]	c #BD9F35",
"^	c #B0952E",
"/	c #AF942F",
"(	c #C3A73E",
"_	c #BDA43C",
":	c #D0B94B",
".......+...............+...............+...............+...............+...............+........        @@@@@@@@@@@@@@@@@@@@@@@#",
".......+...............+...............+...............+...............+...............+........        $@$$$$$$$$$$$$$$$$$$$$##",
".......+...............+...............+...............+...............+...............+........        $@$$$$$$$$$$$$$$$$$$$$##",
".......%...............%...............%...............%...............%...............%........        $@$$$$$$$$$$$$$$$$$$$$##",
".......+...............+...............+...............+...............+...............+........        $@$$$$$$$$$$$$$$$$$$$$##",
".......%...............%...............%...............%...............%...............%........        $@$$$$$$$$$$$$$$$$$$$$##",
".......%...............%...............%...............%...............%...............%........        $@$$$$$$$$$$$$$$$$$$$$##",
"+++%+%%%%%+%+++++++%+%%%%%+%+++++++%+%%%%%+%+++++++%+%%%%%+%+++++++%+%%%%%+%+++++++%+%%%%%+%++++        $@$$$$$$$$$$$$$$$$$$$$##",
".......%&&&&&&&&&&&&&&&&&&&&&&&&&&&&&&&%...............%                                ........        $@$$$$$$$$$$$$$$$$$$$$##",
".......%&..............................%...............% ****************************** ........        $@$$$$$$$$$$$$$$$$$$$$##",
".......+&..............................+...............+ #****************************=&........        $@$$$$$$$$$$$$$$$$$$$$##",
".......%&..............................%...............% ##--------------------------== &.......        $@$$$$$$$$$$$$$$$$$$$$##",
".......+&..............................+...............+ ##--------------------------==&.&......        $@$$$$$$$$$$$$$$$$$$$$##",
".......+&..............................+...............+ ##--------------------------== &.&.....        $@$$$$$$$$$$$$$$$$$$$$##",
".......+&..............................+...............+ ##--------------------------==&.&.&....        $@$$$$$$$$$$$$$$$$$$$$##",
".......+&..............................+...............+ ##--------------------------== &.&.&...        $@$$$$$$$$$$$$$$$$$$$$##",
".......+&..............................+...............+ ##--------------------------==&.&.&.&..        $@$$$$$$$$$$$$$$$$$$$$##",
".......+&..............................+...............+ ##--------------------------== &.&.&.&.        $@$$$$$$$$$$$$$$$$$$$$##",
".......+&..............................+...............+ ##--------------------------==&.&.&.&.&        $@$$$$$$$$$$$$$$$$$$$$##",
".......%&..............................%...............% ##--------------------------== &.&.&.&.        $@$$$$$$$$$$$$$$$$$$$$##",
".......+&..............................+...............+ ##--------------------------==&.&.&.&.&        $@$$$$$$$$$$$$$$$$$$$$##",
".......%&..............................%...............% ##--------------------------== &.&.&.&.        $@$$$$$$$$$$$$$$$$$$$$##",
".......%&..............................%...............% ##--------------------------==&.&.&.&.&        $@$$$$$$$$$$$$$$$$$$$$##",
"+++++%%%&..............................%%%+%+++++++++%%% ##--------------------------== &%&%&+&+        ########################",
".......%&..............................%...............% ##--------------------------==&.&.&.&.&        %%%%%%%%%%%%%%%%%%%%%%%#",
".......%&..............................%...............% ##--------------------------== &.&.&.&.        %@@@@@@@@@@@@@@@@@@@@@##",
".......+&..............................+...............+ ##--------------------------==&.&.&.&.&        %@%%%%%%%%%%%%%%%%%%%%##",
".......%&..............................%...............% ##--------------------------== &.&.&.&.        %@%%%%%%%%%%%%%%%%%%%%##",
".......+&..............................+...............+ ##--------------------------==&.&.&.&.&        %@%%%%%%%%%%%%%%%%%%%%##",
".......+&..............................+...............+ ##--------------------------== &.&.&.&.        %@%%%%%%%%%%%%%%%%%%%%##",
".......+&..............................+...............+ ##--------------------------==&.&.&.&.&        %@%%%%%%%%%%%%%%%%%%%%##",
".......+&..............................+...............+ ##--------------------------== &.&.&.&.        %@%%%%%%%%%%%%%%%%%%%%##",
".......+&..............................+...............+ ##--------------------------==&.&.&.&.&        %@%%%%%%%%%%%%%%%%%%%%##",
".......+&..............................+...............+ ##--------------------------== &.&.&.&.        %@%%%%%%%%%%%%%%%%%%%%##",
".......+&..............................%...............+ ##--------------------------==&.&.&.&.&        %@%%%%%%%%%%%%%%%%%%%%##",
".......%&..............................+...............% ##--------------------------== &.&.&.&.        %@%%%%%%%%%%%%%%%%%%%%##",
".......+&..............................%...............+ ##--------------------------==&.&.&.&.&        %@%%%%%%%%%%%%%%%%%%%%##",
".......%&..............................%...............% #&&&&&&&&&&&&&&&&&&&&&&&&&&&&= &.&.&.&.        %@%%%%%%%%%%%%%%%%%%%%##",
".......%&..............................%...............% &&&&&&&&&&&&&&&&&&&&&&&&&&&&&&&.&.&.&.&        %#######################",
"+++%+%%%%%+%+++++++%+%%%%%+%++++++%+%%%%%%%+%++++++%+%%%  & & & & & & & & & & & & & & & &%&+&+&+        ########################",
".......%...............%...............%...............%...&.&.&.&.&.&.&.&.&.&.&.&.&.&.&.&.&.&.&                                ",
".......%...............%...............%...............%....&.&.&.&.&.&%&.&.&.&.&.&.&.&%&.&.&.&.                                ",
".......+...............+...............+...............+.....&.&.&.&.&.&.&.&.&.&.&.&.&.&.&.&.&.&                                ",
".......%...............%...............%...............%......&.&.&.&.&%&.&.&.&.&.&.&.&%&.&.&.&.                                ",
".......+...............+...............+...............+.......&.&.&.&.&.&.&.&.&.&.&.&.&.&.&.&.&                                ",
".......+...............+...............+...............+........&.&.&.&+&.&.&.&.&.&.&.&+&.&.&.&.                                ",
".......+...............+...............+...............+.........&.&.&.&.&.&.&.&.&.&.&.&.&.&.&.&                                ",
".......+...............+...............+...............+..........&.&.&+&.&.&.&.&.&.&.&+&.&.&.&.                                ",
"                                                                                                                                ",
"                                                                                                                                ",
"                                                                                                                                ",
" ;;;;;     ;;    ;;;;;   ;;;;;       ;; ;;;;;;;   ;;;;  ;;;;;;;  ;;;;;   ;;;;;   ;;;;;  ;;;;;;   ;;;;;  ;;;;;   ;;;;;;; ;;;;;;; ",
">>,,,>>   >>>,  >>,,,>> >>,,,>>     >>>,>>,,,,,, >>,,,,  ,,,,>>,>>,,,>> >>,,,>> >>,,,>> >>,,,>> >>,,,>> >>,,>>  >>,,,,,,>>,,,,,,",
"'',  '', '''',  '',  '','',  '',   '''','',     '',,         '','',  '','',  '','',  '','',  '','',  '','',  '' '',     '',     ",
")), ))),  ,)),   ,,  )), ,,  )),  )),)),)),     )),         )),,)),  )),)),  )),)),  )),)),  )),)),   ,,)),  )),)),     )),     ",
"!!,!!!!,   !!,      !!,,  !!!!,, !!,,!!,!!!!!!  !!!!!!      !!,  !!!!!,,!!,  !!,!!,  !!,!!!!!!,,!!,     !!,  !!,!!!!!   !!!!!   ",
"~~~~,~~,   ~~,     ~~,,    ,,~~ ~~,, ~~, ,,,,~~ ~~,,,~~    ~~,, ~~,,,~~  ~~~~~~,~~~~~~~,~~,,,~~ ~~,     ~~,  ~~,~~,,,,  ~~,,,,  ",
"{{{,,{{,   {{,    {{,,       {{,{{{{{{{,     {{,{{,  {{,   {{,  {{,  {{,  ,,,{{,{{,,,{{,{{,  {{,{{,     {{,  {{,{{,     {{,     ",
"]],, ]],   ]],   ]],,   ]]   ]], ,,,,]],     ]],]],  ]],  ]],,  ]],  ]],     ]],]],  ]],]],  ]],]],  ]] ]],  ]],]],     ]],     ",
"^^,  ^^,   ^^,  ^^,,    ^^,  ^^,     ^^,^^   ^^,^^,  ^^,  ^^,   ^^,  ^^,    ^^,,^^,  ^^,^^,  ^^,^^,  ^^,^^, ^^,,^^,     ^^,     ",
" /////,, ////// ///////  /////,,     //, /////,, /////,,  //,    /////,, ////,, //,  //,//////,, /////,,/////,, /////// //,     ",
"  ,,,,,   ,,,,,, ,,,,,,,  ,,,,,       ,,  ,,,,,   ,,,,,    ,,     ,,,,,   ,,,,   ,,   ,, ,,,,,,   ,,,,,  ,,,,,   ,,,,,,, ,,     ",
"                                                                                                                                ",
"                                                                                                                                ",
"                                                                                                                                ",
"                                                                                                                                ",
"                                                                                                                                ",
" ;;;;;  ;;   ;;   ;;;;     ;;;; ;;   ;; ;;      ;     ; ;;   ;;  ;;;;;  ;;;;;;   ;;;;;  ;;;;;;   ;;;;;  ;;;;;;;;;;   ;; ;;   ;; ",
">>,,,>> >>,  >>,   >>,,     >>,,>>,  >>,>>,     >>   >>,>>,  >>,>>,,,>> >>,,,>> >>,,,>> >>,,,>> >>,,,>>  ,,>>,,,>>,  >>,>>,  >>,",
"'',  '','',  '',   '',      '', '', '',,'',     ''' ''','',  '','',  '','',  '','',  '','',  '','',   ,,   '',  '',  '','',  '',",
")),   ,,)),  )),   )),      )), )),)),, )),     ))))))),)))  )),)),  )),)),  )),)),  )),)),  )),)),        )),  )),  )),)),  )),",
"!!,     !!!!!!!,   !!,      !!, !!!!,,  !!,     !!,!,!!,!!!! !!,!!,  !!,!!,  !!,!!,  !!,!!,  !!, !!!!!     !!,  !!,  !!,!!,  !!,",
"~~,~~~~ ~~,,,~~,   ~~,      ~~, ~~~~,   ~~,     ~~, ,~~,~~,~~~~,~~,  ~~,~~~~~~,,~~,  ~~,~~~~~~,,  ,,,~~    ~~,  ~~,  ~~, ~~ ~~,,",
"{{, ,{{,{{,  {{,   {{,      {{, {{,{{   {{,     {{,  {{,{{, {{{,{{,  {{,{{,,,,, {{,  {{,{{{{,,,      {{,   {{,  {{,  {{, {{,{{, ",
"]],  ]],]],  ]],   ]],  ]]  ]], ]], ]]  ]],     ]],  ]],]],  ]],]],  ]],]],     ]],  ]],]],]]   ]]   ]],   ]],  ]],  ]], ]],]], ",
"^^,  ^^,^^,  ^^,   ^^,  ^^, ^^, ^^,  ^^ ^^,     ^^,  ^^,^^,  ^^,^^,  ^^,^^,     ^^,^^^^,^^, ^^  ^^,  ^^,   ^^,  ^^,  ^^,  ^^^,, ",
" /////,,//,  //,  ////   ////,, //,  //,/////// //,  //,//,  //, /////,,//,      /////,,//,  //  /////,,   //,   /////,,  ///,  ",
"  ,,,,,  ,,   ,,   ,,,,   ,,,,   ,,   ,, ,,,,,,, ,,   ,, ,,   ,,  ,,,,,  ,,       ,,,((  ,,   ,,  ,,,,,     ,,    ,,,,,    ,,,  ",
"                                                                                      ,,                                        ",
"                                                                                                                                ",
"                                                                                                                                ",
"                                                                                                                                ",
"                                                                _                                                               ",
";;   ;; ;;   ;; ;;    ;;;;;;;;;                                 ;;                                                              ",
">>,  >>,>>,  >>,>>,   >>,,,,,>>,                                >>>                                                             ",
"'',  '', '' '',, ''  '',     '',                                ''''                                                            ",
")),  )), )),)),  )), )),    )),,                                )))))                                                           ",
"!!,  !!,  !!!,,   !!!!,,   !!,,                                 !!!!!!                                                          ",
"~~,~ ~~,  ~~~,     ~~,,   ~~,,                  ~~~~~~~         ~~~~~~~                                                         ",
"{{{{{{{, {{,{{     {{,   {{,,                    ,,,,,,,        {{{{{{,,                                                        ",
"]]],]]], ]],]],    ]],  ]],,                                    ]]]]],,                                                         ",
"^^,, ^^,^^,, ^^    ^^,  ^^,        ^^      ^^                   ^^^^,,                                                          ",
"/,,   /,//,  //,   //,  ///////   //,,     //,                  ///,,                                                           ",
" ,     , ,,   ,,    ,,   ,,,,,,,   ,,       ,,                  ((,,                                                            ",
"                                                                :,,                                                             ",
"                                                                 ,                                                              ",
"                                                                                                                                ",
"  ....     ..     ....    ....     ...   ......   ....   ......   ....    ....    ....   .....    ....   .....   ......  ...... ",
" ..  ..   ...    ..  ..  ..  ..   . ..   ..      ..          ..  ..  ..  ..  ..  ..  ..  ..  ..  ..  ..  ..  ..  ..      ..     ",
" ..  ..    ..        ..     ..   .. ..   .....   .....      ..    ....   ..  ..  ..  ..  .....   ..      ..  ..  ....    ....   ",
" ..  ..    ..     ....       ..  .. ..       ..  ..  ..    ..    ..  ..   .....  ......  ..  ..  ..      ..  ..  ..      ..     ",
" ..  ..    ..    ..      ..  ..  ......  ..  ..  ..  ..    ..    ..  ..      ..  ..  ..  ..  ..  ..  ..  ..  ..  ..      ..     ",
"  ....   ......  ......   ....      ..    ....    ....     ..     ....    ....   ..  ..  .....    ....   .....   ......  ..     ",
"                                                                                                                                ",
"                                                                                                                                ",
"  ....   ..  ..   ....       ..  ..  ..  ..      .    .  .   ..   ....   .....    ....   .....    ....   ......  ..  ..  ..  .. ",
" ..  ..  ..  ..    ..        ..  .. ..   ..      ..  ..  ..  ..  ..  ..  ..  ..  ..  ..  ..  ..  ..        ..    ..  ..  ..  .. ",
" ..      ......    ..        ..  ....    ..      ......  ... ..  ..  ..  ..  ..  ..  ..  ..  ..   ....     ..    ..  ..  ..  .. ",
" .. ...  ..  ..    ..        ..  .. ..   ..      ......  .. ...  ..  ..  .....   .. ...  .....       ..    ..    ..  ..  ..  .. ",
" ..  ..  ..  ..    ..    ..  ..  ..  ..  ..      ..  ..  ..  ..  ..  ..  ..      .. ..   ..  ..  ..  ..    ..    ..  ..   ....  ",
"  ....   ..  ..   ....    ....   ..  ..  ......  ..  ..  ..   .   ....   ..       .. ..  ..  ..   ....     ..     ....     ..   ",
"                                                                                                                                ",
"                                                                                                                                ",
" ..  ..  ..  ..  ..  ..  ......                                   ..                                                            ",
" ..  ..  ..  ..  ..  ..     ..                                     ..                                                           ",
" ..  ..   ....    ....     ..                    ......             ..                                                          ",
" ......   ....     ..     ..       ..                              ..                                                           ",
" ..  ..  ..  ..    ..    ..        ..      ..                     ..                                                            ",
" .    .  ..  ..    ..    ......   ..       ..                                                                                   ",
"                                                                                                                                ",
"                                                                                                                                ",
"                                                                                                                                ",
"                                                                                                                                ",
"                                                                                                                                ",
"                                                                                                                                ",
"                                                                                                                                ",
"                                                                                                                                ",
"                                                                                                                                "};
