/* XPM */
static char * textures_xpm[] = {
"128 128 30 1",
" 	c None",
".	c #4E4A4E",
"+	c #442434",
"@	c #140C1C",
"#	c #8595A1",
"$	c #DEEED6",
"%	c #757161",
"&	c #D27D2C",
"*	c #D2AA99",
"=	c #C8C888",
"-	c #787838",
";	c #888848",
">	c #989858",
",	c #A8A868",
"'	c #B8B878",
")	c #D8D898",
"!	c #000000",
"~	c #E8E8A8",
"{	c #F8F8B8",
"]	c #F8F8C8",
"^	c #F8F8D8",
"/	c #F8F8E8",
"(	c #854C30",
"_	c #30346D",
":	c #346524",
"<	c #6DAA2C",
"[	c #597DCE",
"}	c #6DC2CA",
"|	c #DAD45E",
"1	c #D04648",
"        ........                +++@@.++@.++@@.+                                ###################     $$$$$$$$$$$$$$$$$$$$$$$%",
"        ........  .@@@@@@@@@@.  ++@.+@@@.++@@.++ &&&&&&&&&&&&&&&&&&&&&&         #$$$$$$#$$$$$$$$#$##    *$********************%%",
"        ........  +.@@@@@@@@.%  +@@@@..+++@@.+++ %&&&&&&&&&&&&&&&&&&&&.+=       #$$$$$$$$$$$$$$$$$#$#   *$********************%%",
"        ........  ++$$$$$$$$%%  @...++++@@+.++++ %%@@@@@@@@@@@@@@@@@@.. -=      #$$$$$$#$$$$$$$$#$#$$#  *$********************%%",
"        ........  ++$$$$$$$$%%  .+++++@@@.++++@@ %%@@@@@@@@@@@@@@@@@@..+;;=     #$$$$$$$$$$$$$$$$$#$$$# *$********************%%",
"        ........  ++$$$$$$$$%%  ++++@@@.++++@@.+ %%@@@@@@@@@@@@@@@@@@.. >>>=    #$$$$$$#$$$$$$$$#$######*$********************%%",
"        ........  ++$$$$$$$$%%  ++@@@..+++@@.+++ %%@@@@@@@@@@@@@@@@@@..+,,,,=   #$$$$$$$$$$$$$$$$$$$$$$#*$********************%%",
"        ........  ++$$$$$$$$%%  @@@.++++++++++@@ %%@@@@@@@@@@@@@@@@@@.. '''''=  #$$$$$$#$$$$$$$$#$$$$$$#*$********************%%",
"********........  ++$$$$$$$$%%  .+++++++++++@@@. %%@@@@@@@@@@@@@@@@@@...======= #$$$$$$#$$$$$$$$#$$$$$$#*$********************%%",
"***&****........  ++$$$$$$$$%%  +++++++++@@@@.++ %%@@@@@@@@@@@@@@@@@@.. ))))))!!#$$$$$$#$$$$$$$$#$$$$$$#*$********************%%",
"********........  ++$$$$$$$$%%  ++++++@@@@..++++ %%@@@@@@@@@@@@@@@@@@...~~~~~!! #$$$$$$#$$$$$$$$#$$$$$$#*$********************%%",
"******&*........  +.########.%  +++@@@@..+++++++ %%@@@@@@@@@@@@@@@@@@.. {{{{!!  #$$$$$$##########$$$$$$#*$********************%%",
"*&******........  .##########.  +@@@.+.+++++@@++ %%@@@@@@@@@@@@@@@@@@...]]]!!   #$$$$$$#$$$$$$$$#$$$$$$#*$********************%%",
"********........                @@.+++++++@@.+++ %%@@@@@@@@@@@@@@@@@@.. ^^!!    #$$$$$$#$$$$$$$$#$$$$$$#*$********************%%",
"****&***%%%%%%%%                ++++++++@@.++++@ %%@@@@@@@@@@@@@@@@@@.../!!     #$$$$$$#$$$$$$$$#$$$$$$#*$********************%%",
"********@@@@@@@@                +++++@@@.@++++@@ %%@@@@@@@@@@@@@@@@@@..  !      #$$$$$$#$$$$$$$$#$$$$$$#*$********************%%",
"(( (( ((   _      ++++   +.#.++  .+  .+          %%@@@@@@@@@@@@@@@@@@...        ##$#$#$##########$#$#$##*$********************%%",
"(      (    _    +:<:++  +.#.++ &.+&&.+(         %%@@@@@@@@@@@@@@@@@@..         #$$$$$$$$$$$$$$$$$$$$$$#*$********************%%",
"            __   +<<::+  +...++ (.+((.+($$$$$$$@ %%@@@@@@@@@@@@@@@@@@...        #$$$$$$#$$$$$$$$#$$$$$$#*$********************%%",
"(      (  __[__  +:<:++  +.#.++  .+  .+ $$$$$$$@ %%@@@@@@@@@@@@@@@@@@..         ########################*$********************%%",
"(      ( _[[[__  +::::+  +.#.++  .+  .+  $$$$$@@ %%@@@@@@@@@@@@@@@@@@...                                *$********************%%",
"         _[[[__   +:++   +...++ &.+&&.+(  $$$@@  %++++++++++++++++++++.                                 *$********************%%",
"(      ( __[___    ++    +.#.++ (.+((.+(   $@@   +++++++++++++++++++++++                                *$********************%%",
"(( (( ((  ____    +(++   +.#.++  .+  .+    @@     + + + + + + + + + + +                                 %%%%%%%%%%%%%%%%%%%%%%%%",
"  <<<<<<<<<<<<    ::::::::::::  ________________*******$$$$$$$$$$*******        }}}}}}}}}}}}}}}}}}}}}}}%%%%%%%%%%%%%%%%%%%%%%%%%",
" <<<<<<<<<<<<<<  :::::::::::::: ________________******$[[[[[[[[[[$******        }$$$$$$$$$$$$$$$$$$$$$%%%%%%%%%%%%%%%%%%%%%%%%%}",
" <<<<<<<<<<<<<<  :<<<<<<<<<<<<: _____+_______[__****$$[[[[[[[[[[[[$$****        }$}}}}}}}}}}}}}}}}}}}}%%%%                    $}",
" <<<<<<<<<<<<<<  <<<<<<<<<<<<<< ___+_+__[[_[[[[[***$}[[[[[[[[[[[[[[}$***        }$}}}}}}}}}}}}}}}}}}}}%%%%                    $}",
" <<<<<<<<<<<<<<  <<<<<<<<<<<<<< ___+_+__$[[[$$$[**$}[[[[[[[[[[[[[[[[}$**        }$}}}}}}}}}}}}}}}}}}}}%%%%                    $}",
" <<<<<<<<<<<<<<  <<<<<<<<<<<<<< _++++++_$$[$$$$$**$[[[[[[[[[[[[[[[[[[$**        }$}}}}}}}}}}}}}}}}}}}}%%%%                    $}",
" <<<<<<<<<<<<<<  <<<<<<<<<<<<<< __+++++_*$$$***$*$[[[[[[[[[[[[[[[[[[[[$*        }$}}}}}}}}}}}}}}}}}}}}%%%%                    $}",
" <<<<<<<<<<<<<<  <<<<<<<<<<<<<< ________********$}[[[[[[_[__[_[_[[[[[[[$        }$}}}}}}}}}}}}}}}}}}}}%%%%                    $}",
" <<<<<<<<<<<<<<  <<<<<<<<<<<<<< ****************$[[[[[[__________[[[[[[$        }$}}}}}}}}}}}}}}}}}}}}%%%%                    $}",
" <<<<<<<<<<<<<<  <<<<<<<<<<<<<< ***********$$$$$$[[[[[[[_________[[[[[[$        }$}}}}}}}}}}}}}}}}}}}}%%%%                    $}",
" |<<<<<<<<<<<<|  <<<<<<<<<<<<<< **********$[[[[[$[[[[[[_________[[[[[[[$        }$}}}}}}}}}}}}}}}}}}}}%%%%                    $}",
" <||||||||||||<  <<<<<<<<<<<<<< ***_____*$[_____$[[[[[[__________[[[[[[$        }$}}}}}}}}}}}}}}}}}}}}%%%%                    $}",
"  <<<<<<<<<<<<    <<<<<<<<<<<<  ***_____*$[_____$[[[[[[__________[[[[[[$        }$}}}}}}}}}}}}}}}}}}}}%%%%                    $}",
"                                ***__****$[____[$[[[[[[_________[[[[[[[$        }$}}}}}}}}}}}}}}}}}}}}%%%%                    $}",
"                                ***__****$[____[$[[[[[[[_________[[[[[[$        }$}}}}}}}}}}}}}}}}}}}}%%%%                    $}",
"                                ***__****$[__[[$$[[[[[[__________[[[[[[$        }$}}}}}}}}}}}}}}}}}}}}%%%%                    $}",
"           . .%@|||||&@    ||||@   ||||@________$}[[[[[[___[[___[[[[[[}$        }$}}}}}}}}}}}}}}}}}}}}%%%%                    $}",
"            .%.@@|||||&@ [[[[[|@ 111111@11111111*$[[[[[[[[[[[[[[[[[[[[$*        }$}}}}}}}}}}}}}}}}}}}}%%%%                    $}",
"           ##.@@ @|@&||@[[[[[[|@111111@@__$__$__**$[[[[[[[[[[[[[[[[[[$**        }$}}}}}}}}}}}}}}}}}}}}%%%%                    $}",
"          #$%@.@  @@@||@[[@@@@@@11@11@@@___$$___**$}[[[[[[[[[[[[[[[[}$**        }$}}}}}}}}}}}}}}}}}}}}%%%%                    $}",
"         #$%@@@@   @&||@[[[[@   11@1@@  ___$$___***$}[[[[[[[[[[[[[[}$***        }$}}}}}}}}}}}}}}}}}}}}%%%%                    $}",
"         _%@@    |||||&@[[[@@   11@@@   __$__$__****$$[[[[[[[[[[[[$$****        }$}}}}}}}}}}}}}}}}}}}}%%%%                    $}",
"        _[_@     ||||&@@[[@@    11@     11111111******$}[[[[[[[[}$******        }%%%%%%%%%%%%%%%%%%%%%%%%%$$$$$$$$$$$$$$$$$$$$$}",
"         _@      @@@@@@ [@@     @@@     ________*******$$$$$$$$$$*******        %%%%%%%%%%%%%%%%%%%%%%%%%}}}}}}}}}}}}}}}}}}}}}}}",
"                                                                                                                                ",
"                                                                                                                                ",
"                                                                                                                                ",
" =====     ==    =====   =====       == =======   ====  =======  =====   =====   =====  ======   =====  =====   ======= ======= ",
"=;!!!;=   =;;!  =;!!!;= =;!!!;=     =;;!;;!!!!!! =;!!!!  !!!!;;!=;!!!;= =;!!!;= =;!!!;= ;;!!!;= =;!!!;= ;;!!;=  ;;!!!!!!;;!!!!!!",
">>!  >>! =>>>!  >>!  >>!>>!  >>!   =>>>!>>!     =>!!         >>!>>!  >>!>>!  >>!>>!  >>!>>!  >>!>>!  >>!>>!  >= >>!     >>!     ",
",,! ,,,!  !,,!   !!  ,,! !!  ,,!  =,!,,!,,!     ,,!         ,,!!,,!  ,,!,,!  ,,!,,!  ,,!,,!  ,,!,,!   !!,,!  ,,!,,!     ,,!     ",
"''!''''!   ''!      ''!!  ''''!! ='!!''!''''''  ''''''      ''!  '''''!!''!  ''!''!  ''!''''''!!''!     ''!  ''!'''''   '''''   ",
"====!==!   ==!     ==!!    !!== ==!! ==! !!!!== ==!!!==    ==!! ==!!!==  ======!=======!==!!!== ==!     ==!  ==!==!!!!  ==!!!!  ",
")))!!))!   ))!    ))!!       ))!)))))))!     ))!))!  ))!   ))!  ))!  ))!  !!!))!))!!!))!))!  ))!))!     ))!  ))!))!     ))!     ",
"~~!! ~~!   ~~!   ~~!!   ~~   ~~! !!!!~~!     ~~!~~!  ~~!  ~~!!  ~~!  ~~!     ~~!~~!  ~~!~~!  ~~!~~!  ~~ ~~!  ~~!~~!     ~~!     ",
"{{!  {{!   {{!  {{!!    {{!  {{!     {{!{{   {{!{{!  {{!  {{!   {{!  {{!    {{!!{{!  {{!{{!  {{!{{!  {{!{{! {{!!{{!     {{!     ",
" ]]]]]!! ]]]]]] ]]]]]]]  ]]]]]!!     ]]! ]]]]]!! ]]]]]!!  ]]!    ]]]]]!! ]]]]!! ]]!  ]]!]]]]]]!! ]]]]]!!]]]]]!! ]]]]]]] ]]!     ",
"  !!!!!   !!!!!! !!!!!!!  !!!!!       !!  !!!!!   !!!!!    !!     !!!!!   !!!!   !!   !! !!!!!!   !!!!!  !!!!!   !!!!!!! !!     ",
"                                                                                                                                ",
"                                                                                                                                ",
"                                                                                                                                ",
"                                                                                                                                ",
"                                                                                                                                ",
" =====  ==   ==   ====     ==== ==   == ==      =     = ==   ==  =====  ======   =====  ======   =====  ==========   =- ==   == ",
"=;!!!;= ;;!  ;;!   ;;!!     ;;!!;;!  ;;!;;!     ;=   =;!;;!  ;;!=;!!!;= ;;!!!;; =;!!!;= ;;!!!;; =;!!!;=  !!;;!!!;;!  ;;!;;!  ;;!",
">>!  >>!>>!  >>!   >>!      >>! >>! >>!!>>!     >>= =>>!>>!  >>!>>!  >>!>>!  >>!>>!  >>!>>!  >>!>>!   !!   >>!  >>!  >>!>>!  >>!",
",,!   !!,,!  ,,!   ,,!      ,,! ,,!,,!! ,,!     ,,,=,,,!,,,  ,,!,,!  ,,!,,!  ,,!,,!  ,,!,,!  ,,!,,!        ,,!  ,,!  ,,!,,!  ,,!",
"''!     '''''''!   ''!      ''! ''''!!  ''!     ''!'!''!'''' ''!''!  ''!''!  ''!''!  ''!''!  ''! '''''     ''!  ''!  ''!''!  ''!",
"==!==== ==!!!==!   ==!      ==! ====!   ==!     ==! !==!==!====!==!  ==!======!!==!  ==!======!!  !!!==    ==!  ==!  ==! == ==!!",
"))! !))!))!  ))!   ))!      ))! ))!))   ))!     ))!  ))!))! )))!))!  ))!))!!!!! ))!  ))!))))!!!      ))!   ))!  ))!  ))! ))!))! ",
"~~!  ~~!~~!  ~~!   ~~!  ~~  ~~! ~~! ~~  ~~!     ~~!  ~~!~~!  ~~!~~!  ~~!~~!     ~~!  ~~!~~!~~   ~~   ~~!   ~~!  ~~!  ~~! ~~!~~! ",
"{{!  {{!{{!  {{!   {{!  {{! {{! {{!  {{ {{!     {{!  {{!{{!  {{!{{!  {{!{{!     {{!{{{{!{{! {{  {{!  {{!   {{!  {{!  {{!  {{{!! ",
" ]]]]]!!]]!  ]]!  ]]]]   ]]]]!! ]]!  ]]!]]]]]]] ]]!  ]]!]]!  ]]! ]]]]]!!]]!      ]]]]]!!]]!  ]]  ]]]]]!!   ]]!   ]]]]]!!  ]]]!  ",
"  !!!!!  !!   !!   !!!!   !!!!   !!   !! !!!!!!! !!   !! !!   !!  !!!!!  !!       !!!^^  !!   !!  !!!!!     !!    !!!!!    !!!  ",
"                                                                                      !!                                        ",
"                                                                                                                                ",
"                                                        ****************************...............+**********::::***:::::******",
"                                                        *******##########*********......#.....#......+*******:::::::::::::::****",
"                                                        ***&*##..#.....#.##*&****.....................+*****::<<::<::<<::<:::***",
"==   == ==   == ==    =========                         **(&#..*..#***#.*..#&(***....##.#.....#..##...+****:::<<:<<<:<<::<<:::**",
";;!  ;;!;;!  ;;!;;!   ;;!!!!!;;!                        ***#.&***.#**#.***&#.***.......................+**::<:::::<:::::::<<:::*",
">>!  >>! >> >>!! >>  >>!     >>!                        **#.(&&*##.###.#*&&(#.**...#....#.....#....#...+**:<<::::::::<<::<:::::*",
",,!  ,,! ,,!,,!  ,,! ,,!    ,,!!                        **#.*(##..#...#.#.(*#.**...#.....#.#.#.....#...+*::<::<::<<<:<<:<<<::<::",
"''!  ''!  '''!!   ''''!!   ''!!                         *#.***#.*#.**#.*#.***#.*.......+.......+.......+::::::::::<::::::<::::::",
"==!= ==!  ===!     ==!!   ==!!                  ======= *#..*#.**#.**#.**#.**#.*.#.#.#...#.#.#...#.#.#.+:<:<::::<<:::<:::::<<::+",
")))))))! ))!))     ))!   ))!!                    !!!!!!!*##..#.##.###.###..*#..*......#.#.....#.#......+:<<<::::<<::<<<:::<<:::+",
"~~~!~~~! ~~!~~!    ~~!  ~~!!                            *#.##.#..#...#...#.*#..*.......................++:<::::::::::<:::::<:::*",
"{{!! {{!{{!! {{    {{!  {{!        {{      {{           *#.**#.**#.**#.**..#.#.*......#.#.....#.#......++:::::<::::<:::::<:::::*",
"]!!   ]!]]!  ]]!   ]]!  ]]]]]]]   ]]!!     ]]!          *#.**#.**#.**#.**##.##.*.......................+*+<<:<<<:<::::::<<<:<<+*",
" !     ! !!   !!    !!   !!!!!!!   !!       !!          *#.*##.##.###.###..*.#.*......#.#.....#.#......+*+<<::<:<<<::<<::<::<<+*",
"                                                        *#.#..#..#...#...#.**..*.#.#.#...#.#.#...#.#.#.++::::::::<:::<<::<:::::+",
"                                                        *##.*#.**#.**#.**..**..*...............+.......++::::::::::::::::::::::+",
"                        ...............+*&(**&(**#.**#.**#.***#.*#.**#.*##***#.*.........#.#.#.+.......++::<:::::::::::::::<::++",
"                        ...........#...+########&#.&&#.&**#.*(.##.#.#.#.#.(*#.**...#....#.....#....#...+*+<<<<<:::::<<::::<<<:+*",
"                        ...........#...+........(#.((#.(**#.(&(*....#...*(&(#.**...#...............#...+*++<:<<::<::<<::<<:<::+*",
"                        .##..##........+*&(**&(**#.**#.****#.(*****#.*****(#.***.....##.#.....#..##....+**++::::<<<:::::<<:::<+*",
"                        ...............+*&(**&(**#.**#.***(&.##**##.#.***##.&(***.....................+****+++:::<:::<<:::::++**",
"                        ...........#...+########&#.&&#.&***(*..##..###..#..*(****+......#.....#.......+*****+++::::<:<<:+:++++**",
"                        ...........#...+........(#.((#.(*******..........*********++................++********+++:+++::++++*****",
"                        ++++++++.......+*&(**&(**#.**#.*****************************++++++++++++++++***********++++++++++*******",
"                                                                                                                                ",
"  ++++     ++     ++++    ++++     +++   ++++++   ++++   ++++++   ++++    ++++    ++++   +++++    ++++   +++++   ++++++  ++++++ ",
" ++$$++   +++    ++$$++  ++$$++   +$++   ++$$$$  ++$$$   $$$$++  ++$$++  ++$$++  ++$$++  ++$$++  ++$$++  ++$$++  ++$$$$  ++$$$$ ",
" ++  ++   $++    $$  ++  $$ ++$  ++ ++   +++++   +++++      ++$  $++++$  ++  ++  ++  ++  +++++$  ++  $$  ++  ++  ++++    ++++   ",
" ++  ++    ++     ++++$     $++  ++ ++   $$$$++  ++$$++    ++$   ++$$++  $+++++  ++++++  ++$$++  ++      ++  ++  ++$$    ++$$   ",
" ++  ++    ++    ++$$$   ++  ++  ++++++  ++  ++  ++  ++    ++    ++  ++   $$$++  ++$$++  ++  ++  ++  ++  ++  ++  ++      ++     ",
" $++++$  ++++++  ++++++  $++++$  $$$++$  $++++$  $++++$    ++    $++++$   ++++$  ++  ++  +++++$  $++++$  +++++$  ++++++  ++     ",
"  $$$$   $$$$$$  $$$$$$   $$$$      $$    $$$$    $$$$     $$     $$$$    $$$$   $$  $$  $$$$$    $$$$   $$$$$   $$$$$$  $$     ",
"                                                                                                                                ",
"  ++++   ++  ++   ++++       ++  ++  ++  ++      +    +  +   ++   ++++   +++++    ++++   +++++    ++++   ++++++  ++  ++  ++  ++ ",
" ++$$++  ++  ++   $++$       ++  ++ ++$  ++      ++  ++  ++  ++  ++$$++  ++$$++  ++$$++  ++$$++  ++$$$   $$++$$  ++  ++  ++  ++ ",
" ++  $$  ++++++    ++        ++  ++++$   ++      ++++++  +++ ++  ++  ++  ++  ++  ++  ++  ++  ++  $++++     ++    ++  ++  ++  ++ ",
" ++ +++  ++$$++    ++        ++  ++$++   ++      ++++++  ++$+++  ++  ++  +++++$  ++ +++  +++++$   $$$++    ++    ++  ++  ++  ++ ",
" ++ $++  ++  ++    ++    ++  ++  ++ $++  ++      ++$$++  ++ $++  ++  ++  ++$$$   ++ ++$  ++$$++  ++  ++    ++    ++  ++  $++++$ ",
" $++++$  ++  ++   ++++   $++++$  ++  ++  ++++++  ++  ++  ++  $+  $++++$  ++      $++$++  ++  ++  $++++$    ++    $++++$   $++$  ",
"  $$$$   $$  $$   $$$$    $$$$   $$  $$  $$$$$$  $$  $$  $$   $   $$$$   $$       $$ $$  $$  $$   $$$$     $$     $$$$     $$   ",
"                                                                                                        1******1++@@@@++        ",
" ++  ++  ++  ++  ++  ++  ++++++                           ++                                            **1111**+@@@@+++        ",
" ++  ++  ++  ++  ++  ++  $$$++$                           $++                                           *11**11*@@@@++++        ",
" ++  ++  $++++$  $++++$    ++$                   ++++++    $++                                          *****11*@@@++++@        ",
" ++++++   ++++    $++$    ++$      ++            $$$$$$    ++$                                          ***111**@@++++@@        ",
" ++$$++  ++$$++    ++    ++$       ++      ++             ++$                                           ********@++++@@@        ",
" +$  $+  ++  ++    ++    ++++++   ++$      ++             $$                                            ***11***++++@@@@        ",
" $    $  $$  $$    $$    $$$$$$   $$       $$                                                           1******1+++@@@@+        "};
